<?xml version="1.0" encoding="UTF-8" standalone="no"?>
<svg
   xmlns:dc="http://purl.org/dc/elements/1.1/"
   xmlns:cc="http://web.resource.org/cc/"
   xmlns:rdf="http://www.w3.org/1999/02/22-rdf-syntax-ns#"
   xmlns:svg="http://www.w3.org/2000/svg"
   xmlns="http://www.w3.org/2000/svg"
   xmlns:sodipodi="http://sodipodi.sourceforge.net/DTD/sodipodi-0.dtd"
   xmlns:inkscape="http://www.inkscape.org/namespaces/inkscape"
   width="17cm"
   height="12cm"
   viewBox="4 -11 17 12"
   id="svg2"
   sodipodi:version="0.32"
   inkscape:version="0.45.1"
   sodipodi:docname="arq fisica.svg"
   inkscape:output_extension="org.inkscape.output.svg.inkscape"
   sodipodi:docbase="C:\Documents and Settings\nb15080\Desktop\Estágio\Relatório\latex">
  <metadata
     id="metadata243">
    <rdf:RDF>
      <cc:Work
         rdf:about="">
        <dc:format>image/svg+xml</dc:format>
        <dc:type
           rdf:resource="http://purl.org/dc/dcmitype/StillImage" />
      </cc:Work>
    </rdf:RDF>
  </metadata>
  <defs
     id="defs241" />
  <sodipodi:namedview
     inkscape:window-height="844"
     inkscape:window-width="1440"
     inkscape:pageshadow="2"
     inkscape:pageopacity="0.0"
     guidetolerance="10.0"
     gridtolerance="10.0"
     objecttolerance="10.0"
     borderopacity="1.0"
     bordercolor="#666666"
     pagecolor="#ffffff"
     id="base"
     inkscape:zoom="1.1699393"
     inkscape:cx="352.85456"
     inkscape:cy="193.41533"
     inkscape:window-x="-4"
     inkscape:window-y="-4"
     inkscape:current-layer="svg2" />
  <path
     style="fill:#005b81"
     d="M 10.653336,-7.9576508 L 10.653336,-9.4177608 L 10.686136,-9.4667608 L 10.767536,-9.4667608 L 10.800036,-9.4177608 L 10.800036,-7.9576508 L 10.653336,-7.9576508 z "
     id="path4"
     inkscape:export-filename="C:\Documents and Settings\nb15080\Desktop\Estágio\Relatório\latex\arq fisica.png"
     inkscape:export-xdpi="90"
     inkscape:export-ydpi="90" />
  <path
     style="fill:none;fill-opacity:0;stroke:#abe7ff;stroke-width:0.001"
     d="M 10.653336,-7.9576508 L 10.653336,-9.4177608 L 10.686136,-9.4667608 L 10.767536,-9.4667608 L 10.800036,-9.4177608 L 10.800036,-7.9576508 L 10.653336,-7.9576508"
     id="path6"
     inkscape:export-filename="C:\Documents and Settings\nb15080\Desktop\Estágio\Relatório\latex\arq fisica.png"
     inkscape:export-xdpi="90"
     inkscape:export-ydpi="90" />
  <path
     style="fill:#2bc1ff"
     d="M 10.296636,-6.1408708 L 10.361236,-6.0110508 L 8.0745236,-6.0110508 L 7.9930636,-6.1408708 L 7.9768336,-6.2869108 L 7.9930636,-6.4488608 L 8.0417436,-6.5945808 L 8.8206436,-8.0712408 L 11.107636,-8.0712408 L 10.345336,-6.5945808 L 10.280436,-6.4488608 L 10.263836,-6.2869108 L 10.296636,-6.1408708 z "
     id="path8"
     inkscape:export-filename="C:\Documents and Settings\nb15080\Desktop\Estágio\Relatório\latex\arq fisica.png"
     inkscape:export-xdpi="90"
     inkscape:export-ydpi="90" />
  <path
     style="fill:none;fill-opacity:0;stroke:#abe7ff;stroke-width:0.001"
     d="M 10.296636,-6.1408708 L 10.361236,-6.0110508 L 8.0745236,-6.0110508 L 7.9930636,-6.1408708 L 7.9768336,-6.2869108 L 7.9930636,-6.4488608 L 8.0417436,-6.5945808 L 8.8206436,-8.0712408 L 11.107636,-8.0712408 L 10.345336,-6.5945808 L 10.280436,-6.4488608 L 10.263836,-6.2869108 L 10.296636,-6.1408708"
     id="path10"
     inkscape:export-filename="C:\Documents and Settings\nb15080\Desktop\Estágio\Relatório\latex\arq fisica.png"
     inkscape:export-xdpi="90"
     inkscape:export-ydpi="90" />
  <path
     style="fill:#ffffff"
     d="M 8.3987436,-6.5465408 L 8.5123236,-6.8224008 L 8.6746036,-6.8224008 L 8.5765836,-6.5465408 L 8.3987436,-6.5465408 z "
     id="path12"
     inkscape:export-filename="C:\Documents and Settings\nb15080\Desktop\Estágio\Relatório\latex\arq fisica.png"
     inkscape:export-xdpi="90"
     inkscape:export-ydpi="90" />
  <path
     style="fill:#ffffff"
     d="M 9.0640436,-6.5465408 L 9.1610836,-6.8224008 L 9.3233536,-6.8224008 L 9.2259936,-6.5465408 L 9.0640436,-6.5465408 z "
     id="path14"
     inkscape:export-filename="C:\Documents and Settings\nb15080\Desktop\Estágio\Relatório\latex\arq fisica.png"
     inkscape:export-xdpi="90"
     inkscape:export-ydpi="90" />
  <path
     style="fill:#ffffff"
     d="M 9.728734,-6.5465408 L 9.8260344,-6.8224008 L 9.9890356,-6.8224008 L 9.8909352,-6.5465408 L 9.728734,-6.5465408 z "
     id="path16"
     inkscape:export-filename="C:\Documents and Settings\nb15080\Desktop\Estágio\Relatório\latex\arq fisica.png"
     inkscape:export-xdpi="90"
     inkscape:export-ydpi="90" />
  <path
     style="fill:#ffffff"
     d="M 8.8206436,-7.4059308 L 8.9183336,-7.5516508 L 10.669836,-7.5516508 L 10.572536,-7.4059308 L 8.8206436,-7.4059308 z "
     id="path18"
     inkscape:export-filename="C:\Documents and Settings\nb15080\Desktop\Estágio\Relatório\latex\arq fisica.png"
     inkscape:export-xdpi="90"
     inkscape:export-ydpi="90" />
  <path
     style="fill:#0079ab"
     d="M 10.296636,-6.1408708 L 10.361236,-6.0110508 L 11.189136,-7.0982608 L 11.172636,-7.9096208 L 11.107636,-8.0712408 L 10.345336,-6.5945808 L 10.280436,-6.4488608 L 10.263836,-6.2869108 L 10.296636,-6.1408708 z "
     id="path20"
     inkscape:export-filename="C:\Documents and Settings\nb15080\Desktop\Estágio\Relatório\latex\arq fisica.png"
     inkscape:export-xdpi="90"
     inkscape:export-ydpi="90" />
  <path
     style="fill:none;fill-opacity:0;stroke:#abe7ff;stroke-width:0.001"
     d="M 10.296636,-6.1408708 L 10.361236,-6.0110508 L 11.189136,-7.0982608 L 11.172636,-7.9096208 L 11.107636,-8.0712408 L 10.345336,-6.5945808 L 10.280436,-6.4488608 L 10.263836,-6.2869108 L 10.296636,-6.1408708"
     id="path22"
     inkscape:export-filename="C:\Documents and Settings\nb15080\Desktop\Estágio\Relatório\latex\arq fisica.png"
     inkscape:export-xdpi="90"
     inkscape:export-ydpi="90" />
  <path
     style="fill:#005b81"
     d="M 8.0183236,-1.4726508 L 8.0183236,-2.9327608 L 8.0511036,-2.9817608 L 8.1325636,-2.9817608 L 8.1650136,-2.9327608 L 8.1650136,-1.4726508 L 8.0183236,-1.4726508 z "
     id="path24"
     inkscape:export-filename="C:\Documents and Settings\nb15080\Desktop\Estágio\Relatório\latex\arq fisica.png"
     inkscape:export-xdpi="90"
     inkscape:export-ydpi="90" />
  <path
     style="fill:none;fill-opacity:0;stroke:#abe7ff;stroke-width:0.001"
     d="M 8.0183236,-1.4726508 L 8.0183236,-2.9327608 L 8.0511036,-2.9817608 L 8.1325636,-2.9817608 L 8.1650136,-2.9327608 L 8.1650136,-1.4726508 L 8.0183236,-1.4726508"
     id="path26"
     inkscape:export-filename="C:\Documents and Settings\nb15080\Desktop\Estágio\Relatório\latex\arq fisica.png"
     inkscape:export-xdpi="90"
     inkscape:export-ydpi="90" />
  <path
     style="fill:#2bc1ff"
     d="M 7.6616536,0.34412985 L 7.7262336,0.47394585 L 5.4395236,0.47394585 L 5.3580636,0.34412985 L 5.3418336,0.19808685 L 5.3580636,0.036140856 L 5.4067436,-0.10957814 L 6.1856436,-1.5862408 L 8.4726836,-1.5862408 L 7.7103336,-0.10957814 L 7.6454236,0.036140856 L 7.6288736,0.19808685 L 7.6616536,0.34412985 z "
     id="path28"
     inkscape:export-filename="C:\Documents and Settings\nb15080\Desktop\Estágio\Relatório\latex\arq fisica.png"
     inkscape:export-xdpi="90"
     inkscape:export-ydpi="90" />
  <path
     style="fill:none;fill-opacity:0;stroke:#abe7ff;stroke-width:0.001"
     d="M 7.6616536,0.34412985 L 7.7262336,0.47394585 L 5.4395236,0.47394585 L 5.3580636,0.34412985 L 5.3418336,0.19808685 L 5.3580636,0.036140856 L 5.4067436,-0.10957814 L 6.1856436,-1.5862408 L 8.4726836,-1.5862408 L 7.7103336,-0.10957814 L 7.6454236,0.036140856 L 7.6288736,0.19808685 L 7.6616536,0.34412985"
     id="path30"
     inkscape:export-filename="C:\Documents and Settings\nb15080\Desktop\Estágio\Relatório\latex\arq fisica.png"
     inkscape:export-xdpi="90"
     inkscape:export-ydpi="90" />
  <path
     style="fill:#ffffff"
     d="M 5.7637436,-0.06154614 L 5.8773236,-0.33740534 L 6.0396036,-0.33740534 L 5.9415836,-0.06154614 L 5.7637436,-0.06154614 z "
     id="path32"
     inkscape:export-filename="C:\Documents and Settings\nb15080\Desktop\Estágio\Relatório\latex\arq fisica.png"
     inkscape:export-xdpi="90"
     inkscape:export-ydpi="90" />
  <path
     style="fill:#ffffff"
     d="M 6.4290436,-0.06154614 L 6.5260836,-0.33740534 L 6.6883536,-0.33740534 L 6.5909936,-0.06154614 L 6.4290436,-0.06154614 z "
     id="path34"
     inkscape:export-filename="C:\Documents and Settings\nb15080\Desktop\Estágio\Relatório\latex\arq fisica.png"
     inkscape:export-xdpi="90"
     inkscape:export-ydpi="90" />
  <path
     style="fill:#ffffff"
     d="M 7.0937036,-0.06154614 L 7.1910736,-0.33740534 L 7.3539836,-0.33740534 L 7.2559736,-0.06154614 L 7.0937036,-0.06154614 z "
     id="path36"
     inkscape:export-filename="C:\Documents and Settings\nb15080\Desktop\Estágio\Relatório\latex\arq fisica.png"
     inkscape:export-xdpi="90"
     inkscape:export-ydpi="90" />
  <path
     style="fill:#ffffff"
     d="M 6.1856436,-0.92092915 L 6.2833336,-1.0666481 L 8.0348736,-1.0666481 L 7.9375136,-0.92092915 L 6.1856436,-0.92092915 z "
     id="path38"
     inkscape:export-filename="C:\Documents and Settings\nb15080\Desktop\Estágio\Relatório\latex\arq fisica.png"
     inkscape:export-xdpi="90"
     inkscape:export-ydpi="90" />
  <path
     style="fill:#0079ab"
     d="M 7.6616536,0.34412985 L 7.7262336,0.47394585 L 8.5541436,-0.61326515 L 8.5375836,-1.4246208 L 8.4726836,-1.5862408 L 7.7103336,-0.10957814 L 7.6454236,0.036140856 L 7.6288736,0.19808685 L 7.6616536,0.34412985 z "
     id="path40"
     inkscape:export-filename="C:\Documents and Settings\nb15080\Desktop\Estágio\Relatório\latex\arq fisica.png"
     inkscape:export-xdpi="90"
     inkscape:export-ydpi="90" />
  <path
     style="fill:none;fill-opacity:0;stroke:#abe7ff;stroke-width:0.001"
     d="M 7.6616536,0.34412985 L 7.7262336,0.47394585 L 8.5541436,-0.61326515 L 8.5375836,-1.4246208 L 8.4726836,-1.5862408 L 7.7103336,-0.10957814 L 7.6454236,0.036140856 L 7.6288736,0.19808685 L 7.6616536,0.34412985"
     id="path42"
     inkscape:export-filename="C:\Documents and Settings\nb15080\Desktop\Estágio\Relatório\latex\arq fisica.png"
     inkscape:export-xdpi="90"
     inkscape:export-ydpi="90" />
  <path
     style="fill:#005b81"
     d="M 12.983336,-1.7376508 L 12.983336,-3.1977608 L 13.016136,-3.2467608 L 13.097536,-3.2467608 L 13.130036,-3.1977608 L 13.130036,-1.7376508 L 12.983336,-1.7376508 z "
     id="path44"
     inkscape:export-filename="C:\Documents and Settings\nb15080\Desktop\Estágio\Relatório\latex\arq fisica.png"
     inkscape:export-xdpi="90"
     inkscape:export-ydpi="90" />
  <path
     style="fill:none;fill-opacity:0;stroke:#abe7ff;stroke-width:0.001"
     d="M 12.983336,-1.7376508 L 12.983336,-3.1977608 L 13.016136,-3.2467608 L 13.097536,-3.2467608 L 13.130036,-3.1977608 L 13.130036,-1.7376508 L 12.983336,-1.7376508"
     id="path46"
     inkscape:export-filename="C:\Documents and Settings\nb15080\Desktop\Estágio\Relatório\latex\arq fisica.png"
     inkscape:export-xdpi="90"
     inkscape:export-ydpi="90" />
  <path
     style="fill:#2bc1ff"
     d="M 12.626636,0.079129853 L 12.691236,0.20894585 L 10.404536,0.20894585 L 10.323036,0.079129853 L 10.306836,-0.066913141 L 10.323036,-0.22885914 L 10.371736,-0.37457784 L 11.150636,-1.8512408 L 13.437636,-1.8512408 L 12.675336,-0.37457784 L 12.610436,-0.22885914 L 12.593836,-0.066913141 L 12.626636,0.079129853 z "
     id="path48"
     inkscape:export-filename="C:\Documents and Settings\nb15080\Desktop\Estágio\Relatório\latex\arq fisica.png"
     inkscape:export-xdpi="90"
     inkscape:export-ydpi="90" />
  <path
     style="fill:none;fill-opacity:0;stroke:#abe7ff;stroke-width:0.001"
     d="M 12.626636,0.079129853 L 12.691236,0.20894585 L 10.404536,0.20894585 L 10.323036,0.079129853 L 10.306836,-0.066913141 L 10.323036,-0.22885914 L 10.371736,-0.37457784 L 11.150636,-1.8512408 L 13.437636,-1.8512408 L 12.675336,-0.37457784 L 12.610436,-0.22885914 L 12.593836,-0.066913141 L 12.626636,0.079129853"
     id="path50"
     inkscape:export-filename="C:\Documents and Settings\nb15080\Desktop\Estágio\Relatório\latex\arq fisica.png"
     inkscape:export-xdpi="90"
     inkscape:export-ydpi="90" />
  <path
     style="fill:#ffffff"
     d="M 10.728736,-0.32654584 L 10.842336,-0.60240515 L 11.004636,-0.60240515 L 10.906636,-0.32654584 L 10.728736,-0.32654584 z "
     id="path52"
     inkscape:export-filename="C:\Documents and Settings\nb15080\Desktop\Estágio\Relatório\latex\arq fisica.png"
     inkscape:export-xdpi="90"
     inkscape:export-ydpi="90" />
  <path
     style="fill:#ffffff"
     d="M 11.394036,-0.32654584 L 11.491136,-0.60240515 L 11.653336,-0.60240515 L 11.556036,-0.32654584 L 11.394036,-0.32654584 z "
     id="path54"
     inkscape:export-filename="C:\Documents and Settings\nb15080\Desktop\Estágio\Relatório\latex\arq fisica.png"
     inkscape:export-xdpi="90"
     inkscape:export-ydpi="90" />
  <path
     style="fill:#ffffff"
     d="M 12.058736,-0.32654584 L 12.156036,-0.60240515 L 12.319036,-0.60240515 L 12.220936,-0.32654584 L 12.058736,-0.32654584 z "
     id="path56"
     inkscape:export-filename="C:\Documents and Settings\nb15080\Desktop\Estágio\Relatório\latex\arq fisica.png"
     inkscape:export-xdpi="90"
     inkscape:export-ydpi="90" />
  <path
     style="fill:#ffffff"
     d="M 11.150636,-1.185929 L 11.248336,-1.3316479 L 12.999836,-1.3316479 L 12.902536,-1.185929 L 11.150636,-1.185929 z "
     id="path58"
     inkscape:export-filename="C:\Documents and Settings\nb15080\Desktop\Estágio\Relatório\latex\arq fisica.png"
     inkscape:export-xdpi="90"
     inkscape:export-ydpi="90" />
  <path
     style="fill:#0079ab"
     d="M 12.626636,0.079129853 L 12.691236,0.20894585 L 13.519136,-0.87826515 L 13.502636,-1.6896208 L 13.437636,-1.8512408 L 12.675336,-0.37457784 L 12.610436,-0.22885914 L 12.593836,-0.066913141 L 12.626636,0.079129853 z "
     id="path60"
     inkscape:export-filename="C:\Documents and Settings\nb15080\Desktop\Estágio\Relatório\latex\arq fisica.png"
     inkscape:export-xdpi="90"
     inkscape:export-ydpi="90" />
  <path
     style="fill:none;fill-opacity:0;stroke:#abe7ff;stroke-width:0.001"
     d="M 12.626636,0.079129853 L 12.691236,0.20894585 L 13.519136,-0.87826515 L 13.502636,-1.6896208 L 13.437636,-1.8512408 L 12.675336,-0.37457784 L 12.610436,-0.22885914 L 12.593836,-0.066913141 L 12.626636,0.079129853"
     id="path62"
     inkscape:export-filename="C:\Documents and Settings\nb15080\Desktop\Estágio\Relatório\latex\arq fisica.png"
     inkscape:export-xdpi="90"
     inkscape:export-ydpi="90" />
  <rect
     style="fill:none;fill-opacity:0;stroke:#000000;stroke-width:0.1"
     x="4.5613322"
     y="-8.8772593"
     width="9.6999998"
     height="9.6999998"
     rx="1.17549e-038"
     ry="1.17549e-038"
     id="rect64"
     inkscape:export-filename="C:\Documents and Settings\nb15080\Desktop\Estágio\Relatório\latex\arq fisica.png"
     inkscape:export-xdpi="90"
     inkscape:export-ydpi="90" />
  <line
     style="fill:none;fill-opacity:0;stroke:#000000;stroke-width:0.1"
     x1="11.186535"
     y1="-7.2308125"
     x2="16.015936"
     y2="-7.9274125"
     id="line66"
     inkscape:export-filename="C:\Documents and Settings\nb15080\Desktop\Estágio\Relatório\latex\arq fisica.png"
     inkscape:export-xdpi="90"
     inkscape:export-ydpi="90" />
  <polygon
     style="fill:#000000"
     points="16.7258,-7.58584 16.2666,-7.26702 16.3546,-7.5323 16.1952,-7.7619 16.7258,-7.58584 "
     id="polygon68"
     transform="translate(-0.3386665,-0.3951109)"
     inkscape:export-filename="C:\Documents and Settings\nb15080\Desktop\Estágio\Relatório\latex\arq fisica.png"
     inkscape:export-xdpi="90"
     inkscape:export-ydpi="90" />
  <polygon
     style="fill:none;fill-opacity:0;stroke:#000000;stroke-width:0.1"
     points="16.7258,-7.58584 16.2666,-7.26702 16.3546,-7.5323 16.1952,-7.7619 16.7258,-7.58584 "
     id="polygon70"
     transform="translate(-0.3386665,-0.3951109)"
     inkscape:export-filename="C:\Documents and Settings\nb15080\Desktop\Estágio\Relatório\latex\arq fisica.png"
     inkscape:export-xdpi="90"
     inkscape:export-ydpi="90" />
  <line
     style="fill:none;fill-opacity:0;stroke:#000000;stroke-width:0.1"
     x1="8.5380154"
     y1="-1.3884878"
     x2="15.484435"
     y2="-6.1612325"
     id="line72"
     inkscape:export-filename="C:\Documents and Settings\nb15080\Desktop\Estágio\Relatório\latex\arq fisica.png"
     inkscape:export-xdpi="90"
     inkscape:export-ydpi="90" />
  <polygon
     style="fill:#000000"
     points="16.1322,-5.97848 15.8617,-5.48928 15.8231,-5.76612 15.5785,-5.90139 16.1322,-5.97848 "
     id="polygon74"
     transform="translate(-0.3386665,-0.3951109)"
     inkscape:export-filename="C:\Documents and Settings\nb15080\Desktop\Estágio\Relatório\latex\arq fisica.png"
     inkscape:export-xdpi="90"
     inkscape:export-ydpi="90" />
  <polygon
     style="fill:none;fill-opacity:0;stroke:#000000;stroke-width:0.1"
     points="16.1322,-5.97848 15.8617,-5.48928 15.8231,-5.76612 15.5785,-5.90139 16.1322,-5.97848 "
     id="polygon76"
     transform="translate(-0.3386665,-0.3951109)"
     inkscape:export-filename="C:\Documents and Settings\nb15080\Desktop\Estágio\Relatório\latex\arq fisica.png"
     inkscape:export-xdpi="90"
     inkscape:export-ydpi="90" />
  <line
     style="fill:none;fill-opacity:0;stroke:#000000;stroke-width:0.1"
     x1="13.168934"
     y1="-1.8514109"
     x2="16.538734"
     y2="-5.8547225"
     id="line78"
     inkscape:export-filename="C:\Documents and Settings\nb15080\Desktop\Estágio\Relatório\latex\arq fisica.png"
     inkscape:export-xdpi="90"
     inkscape:export-ydpi="90" />
  <polygon
     style="fill:#000000"
     points="17.1189,-5.7465 16.9882,-5.20298 16.8774,-5.45961 16.6057,-5.52497 17.1189,-5.7465 "
     id="polygon80"
     transform="translate(-0.3386665,-0.3951109)"
     inkscape:export-filename="C:\Documents and Settings\nb15080\Desktop\Estágio\Relatório\latex\arq fisica.png"
     inkscape:export-xdpi="90"
     inkscape:export-ydpi="90" />
  <polygon
     style="fill:none;fill-opacity:0;stroke:#000000;stroke-width:0.1"
     points="17.1189,-5.7465 16.9882,-5.20298 16.8774,-5.45961 16.6057,-5.52497 17.1189,-5.7465 "
     id="polygon82"
     transform="translate(-0.3386665,-0.3951109)"
     inkscape:export-filename="C:\Documents and Settings\nb15080\Desktop\Estágio\Relatório\latex\arq fisica.png"
     inkscape:export-xdpi="90"
     inkscape:export-ydpi="90" />
  <path
     style="fill:none;fill-opacity:0;stroke:#0079ab;stroke-width:0.001"
     d="M 20.952836,-6.8250608 L 20.968036,-6.8457708 L 20.982536,-6.8678608 L 20.995036,-6.8913408 L 21.006736,-6.9127408 L 21.015736,-6.9362108 L 21.023336,-6.9596908 L 21.030236,-6.9831608 L 21.034336,-7.0073308 L 21.037136,-7.0308008 L 21.039136,-7.0549608 L 21.039136,-7.0791308 L 21.037136,-7.1039808 L 21.034336,-7.1274608 L 21.030236,-7.1516208 L 21.024036,-7.1744108 L 21.015736,-7.1985708 L 21.006736,-7.2213608 L 20.995036,-7.2448308 L 20.982536,-7.2669208 L 20.968036,-7.2876408 L 20.952836,-7.3097308 L 20.935636,-7.3297508 L 20.918336,-7.3497708 L 20.899036,-7.3691008 L 20.879036,-7.3877508 L 20.857636,-7.4057008 L 20.835536,-7.4222708 L 20.810636,-7.4374608 L 20.786436,-7.4526508 L 20.760236,-7.4671408 L 20.732636,-7.4802608 L 20.705036,-7.4926908 L 20.676736,-7.5023608 L 20.647736,-7.5120208 L 20.617336,-7.5216908 L 20.587636,-7.5285908 L 20.557236,-7.5348108 L 20.525536,-7.5403308 L 20.495136,-7.5437808 L 20.462636,-7.5465408 L 20.430936,-7.5486108 L 20.398436,-7.5486108 L 20.367436,-7.5472308 L 20.335636,-7.5458508 L 20.303236,-7.5424008 L 20.272836,-7.5368808 L 20.241036,-7.5313508 L 20.212036,-7.5244508 L 20.181636,-7.5175408 L 20.152636,-7.5078808 L 20.123036,-7.4968308 L 20.094736,-7.4864808 L 20.068436,-7.4740508 L 20.041536,-7.4595508 L 20.015936,-7.4457408 L 19.991836,-7.4298608 L 19.968336,-7.4146708 L 19.946236,-7.3967208 L 19.924136,-7.3780808 L 19.904836,-7.3594408 L 19.886136,-7.3401108 L 19.868236,-7.3193908"
     id="path84"
     inkscape:export-filename="C:\Documents and Settings\nb15080\Desktop\Estágio\Relatório\latex\arq fisica.png"
     inkscape:export-xdpi="90"
     inkscape:export-ydpi="90" />
  <path
     style="fill:none;fill-opacity:0;stroke:#abe7ff;stroke-width:0.08"
     d="M 20.931436,-6.8423208 L 20.943936,-6.8630308 L 20.958436,-6.8830508 L 20.970136,-6.9044508 L 20.979836,-6.9258608 L 20.988736,-6.9479508 L 20.995636,-6.9700408 L 21.001936,-6.9928308 L 21.006736,-7.0142308 L 21.008836,-7.0370108 L 21.010136,-7.0604908 L 21.010136,-7.0832708 L 21.008136,-7.1060608 L 21.004636,-7.1295308 L 21.000536,-7.1509308 L 20.993636,-7.1737208 L 20.985336,-7.1958108 L 20.976336,-7.2172108 L 20.966036,-7.2386208 L 20.954236,-7.2586408 L 20.941136,-7.2800408 L 20.924536,-7.2993708 L 20.909336,-7.3193908 L 20.891436,-7.3380408 L 20.872836,-7.3559908 L 20.853436,-7.3718708 L 20.833436,-7.3891308 L 20.810636,-7.4050108 L 20.786436,-7.4208908 L 20.763036,-7.4340008 L 20.738836,-7.4464308 L 20.711236,-7.4588608 L 20.686336,-7.4706008 L 20.657336,-7.4802608 L 20.631136,-7.4892408 L 20.602136,-7.4968308 L 20.573136,-7.5037408 L 20.544136,-7.5099508 L 20.513736,-7.5140908 L 20.484736,-7.5175408 L 20.454436,-7.5203108 L 20.421936,-7.5216908 L 20.391536,-7.5216908 L 20.361836,-7.5203108 L 20.331536,-7.5182308 L 20.302536,-7.5140908 L 20.272136,-7.5099508 L 20.243136,-7.5051208 L 20.213436,-7.4968308 L 20.185136,-7.4899308 L 20.157536,-7.4809508 L 20.129236,-7.4712908 L 20.102936,-7.4595508 L 20.077436,-7.4485008 L 20.052536,-7.4346908 L 20.028436,-7.4215808 L 20.004236,-7.4063908 L 19.982136,-7.3912008 L 19.962136,-7.3746308 L 19.940036,-7.3580608 L 19.922036,-7.3401108 L 19.904836,-7.3214708 L 19.888236,-7.3021308"
     id="path86"
     inkscape:export-filename="C:\Documents and Settings\nb15080\Desktop\Estágio\Relatório\latex\arq fisica.png"
     inkscape:export-xdpi="90"
     inkscape:export-ydpi="90" />
  <path
     style="fill:#00b5ff"
     d="M 16.498336,-7.5755408 L 16.967136,-8.0167208 L 20.462636,-8.0167208 L 19.993836,-7.5755408 L 16.498336,-7.5755408 z "
     id="path88"
     inkscape:export-filename="C:\Documents and Settings\nb15080\Desktop\Estágio\Relatório\latex\arq fisica.png"
     inkscape:export-xdpi="90"
     inkscape:export-ydpi="90" />
  <path
     style="fill:none;fill-opacity:0;stroke:#abe7ff;stroke-width:0.001"
     d="M 16.498336,-7.5755408 L 16.967136,-8.0167208 L 20.462636,-8.0167208 L 19.993836,-7.5755408 L 16.498336,-7.5755408"
     id="path90"
     inkscape:export-filename="C:\Documents and Settings\nb15080\Desktop\Estágio\Relatório\latex\arq fisica.png"
     inkscape:export-xdpi="90"
     inkscape:export-ydpi="90" />
  <path
     style="fill:#0097d5"
     d="M 16.498336,-7.5755408 L 19.993836,-7.5755408 L 19.993836,-6.9141208 L 16.498336,-6.9141208 L 16.498336,-7.5755408 z "
     id="path92"
     inkscape:export-filename="C:\Documents and Settings\nb15080\Desktop\Estágio\Relatório\latex\arq fisica.png"
     inkscape:export-xdpi="90"
     inkscape:export-ydpi="90" />
  <path
     style="fill:none;fill-opacity:0;stroke:#abe7ff;stroke-width:0.001"
     d="M 16.498336,-7.5755408 L 19.993836,-7.5755408 L 19.993836,-6.9141208 L 16.498336,-6.9141208 L 16.498336,-7.5755408"
     id="path94"
     inkscape:export-filename="C:\Documents and Settings\nb15080\Desktop\Estágio\Relatório\latex\arq fisica.png"
     inkscape:export-xdpi="90"
     inkscape:export-ydpi="90" />
  <path
     style="fill:#005b81"
     d="M 19.993836,-6.9141208 L 20.462636,-7.3829108 L 20.462636,-8.0167208 L 19.993836,-7.5755408 L 19.993836,-6.9141208 z "
     id="path96"
     inkscape:export-filename="C:\Documents and Settings\nb15080\Desktop\Estágio\Relatório\latex\arq fisica.png"
     inkscape:export-xdpi="90"
     inkscape:export-ydpi="90" />
  <path
     style="fill:none;fill-opacity:0;stroke:#abe7ff;stroke-width:0.001"
     d="M 19.993836,-6.9141208 L 20.462636,-7.3829108 L 20.462636,-8.0167208 L 19.993836,-7.5755408 L 19.993836,-6.9141208"
     id="path98"
     inkscape:export-filename="C:\Documents and Settings\nb15080\Desktop\Estágio\Relatório\latex\arq fisica.png"
     inkscape:export-xdpi="90"
     inkscape:export-ydpi="90" />
  <path
     style="fill:#000000"
     d="M 16.609436,-7.6590808 L 16.967136,-8.0167208 L 20.379136,-8.0167208 L 20.022236,-7.6590808 L 16.609436,-7.6590808 z "
     id="path100"
     inkscape:export-filename="C:\Documents and Settings\nb15080\Desktop\Estágio\Relatório\latex\arq fisica.png"
     inkscape:export-xdpi="90"
     inkscape:export-ydpi="90" />
  <path
     style="fill:none;fill-opacity:0;stroke:#000000;stroke-width:0.001"
     d="M 16.609436,-7.6590808 L 16.967136,-8.0167208 L 20.379136,-8.0167208 L 20.022236,-7.6590808 L 16.609436,-7.6590808"
     id="path102"
     inkscape:export-filename="C:\Documents and Settings\nb15080\Desktop\Estágio\Relatório\latex\arq fisica.png"
     inkscape:export-xdpi="90"
     inkscape:export-ydpi="90" />
  <path
     style="fill:#00b5ff"
     d="M 16.498336,-10.494608 L 16.884936,-10.852308 L 20.379136,-10.852308 L 19.993836,-10.494608 L 16.498336,-10.494608 z "
     id="path104"
     inkscape:export-filename="C:\Documents and Settings\nb15080\Desktop\Estágio\Relatório\latex\arq fisica.png"
     inkscape:export-xdpi="90"
     inkscape:export-ydpi="90" />
  <path
     style="fill:none;fill-opacity:0;stroke:#abe7ff;stroke-width:0.001"
     d="M 16.498336,-10.494608 L 16.884936,-10.852308 L 20.379136,-10.852308 L 19.993836,-10.494608 L 16.498336,-10.494608"
     id="path106"
     inkscape:export-filename="C:\Documents and Settings\nb15080\Desktop\Estágio\Relatório\latex\arq fisica.png"
     inkscape:export-xdpi="90"
     inkscape:export-ydpi="90" />
  <path
     style="fill:#0097d5"
     d="M 16.498336,-10.494608 L 20.022236,-10.494608 L 20.022236,-7.7143108 L 16.498336,-7.7143108 L 16.498336,-10.494608 z "
     id="path108"
     inkscape:export-filename="C:\Documents and Settings\nb15080\Desktop\Estágio\Relatório\latex\arq fisica.png"
     inkscape:export-xdpi="90"
     inkscape:export-ydpi="90" />
  <path
     style="fill:none;fill-opacity:0;stroke:#abe7ff;stroke-width:0.001"
     d="M 16.498336,-10.494608 L 20.021536,-10.494608 L 20.021536,-7.7150008 L 16.498336,-7.7150008 L 16.498336,-10.494608"
     id="path110"
     inkscape:export-filename="C:\Documents and Settings\nb15080\Desktop\Estágio\Relatório\latex\arq fisica.png"
     inkscape:export-xdpi="90"
     inkscape:export-ydpi="90" />
  <path
     style="fill:#ffffff"
     d="M 16.801436,-10.1363 L 19.719136,-10.1363 L 19.719136,-7.9884108 L 16.801436,-7.9884108 L 16.801436,-10.1363 z "
     id="path112"
     inkscape:export-filename="C:\Documents and Settings\nb15080\Desktop\Estágio\Relatório\latex\arq fisica.png"
     inkscape:export-xdpi="90"
     inkscape:export-ydpi="90" />
  <path
     style="fill:none;fill-opacity:0;stroke:#003d56;stroke-width:0.001"
     d="M 16.801436,-10.1363 L 19.718436,-10.1363 L 19.718436,-7.9891008 L 16.801436,-7.9891008 L 16.801436,-10.1363"
     id="path114"
     inkscape:export-filename="C:\Documents and Settings\nb15080\Desktop\Estágio\Relatório\latex\arq fisica.png"
     inkscape:export-xdpi="90"
     inkscape:export-ydpi="90" />
  <path
     style="fill:#005b81"
     d="M 19.993836,-7.7405508 L 20.379136,-8.1264908 L 20.379136,-10.852308 L 19.993836,-10.494608 L 19.993836,-7.7405508 z "
     id="path116"
     inkscape:export-filename="C:\Documents and Settings\nb15080\Desktop\Estágio\Relatório\latex\arq fisica.png"
     inkscape:export-xdpi="90"
     inkscape:export-ydpi="90" />
  <path
     style="fill:none;fill-opacity:0;stroke:#abe7ff;stroke-width:0.001"
     d="M 19.993836,-7.7405508 L 20.379136,-8.1264908 L 20.379136,-10.852308 L 19.993836,-10.494608 L 19.993836,-7.7405508"
     id="path118"
     inkscape:export-filename="C:\Documents and Settings\nb15080\Desktop\Estágio\Relatório\latex\arq fisica.png"
     inkscape:export-xdpi="90"
     inkscape:export-ydpi="90" />
  <path
     style="fill:#00b5ff"
     d="M 15.811336,-6.3638608 L 16.360936,-7.0528908 L 20.159536,-7.0528908 L 19.609336,-6.3638608 L 15.811336,-6.3638608 z "
     id="path120"
     inkscape:export-filename="C:\Documents and Settings\nb15080\Desktop\Estágio\Relatório\latex\arq fisica.png"
     inkscape:export-xdpi="90"
     inkscape:export-ydpi="90" />
  <path
     style="fill:none;fill-opacity:0;stroke:#abe7ff;stroke-width:0.001"
     d="M 15.811336,-6.3638608 L 16.360936,-7.0528908 L 20.159536,-7.0528908 L 19.609336,-6.3638608 L 15.811336,-6.3638608"
     id="path122"
     inkscape:export-filename="C:\Documents and Settings\nb15080\Desktop\Estágio\Relatório\latex\arq fisica.png"
     inkscape:export-xdpi="90"
     inkscape:export-ydpi="90" />
  <path
     style="fill:#005b81"
     d="M 19.609336,-6.2271508 L 20.159536,-6.8050308 L 20.159536,-7.0528908 L 19.609336,-6.3638608 L 19.609336,-6.2271508 z "
     id="path124"
     inkscape:export-filename="C:\Documents and Settings\nb15080\Desktop\Estágio\Relatório\latex\arq fisica.png"
     inkscape:export-xdpi="90"
     inkscape:export-ydpi="90" />
  <path
     style="fill:none;fill-opacity:0;stroke:#abe7ff;stroke-width:0.001"
     d="M 19.609336,-6.2271508 L 20.159536,-6.8050308 L 20.159536,-7.0528908 L 19.609336,-6.3638608 L 19.609336,-6.2271508"
     id="path126"
     inkscape:export-filename="C:\Documents and Settings\nb15080\Desktop\Estágio\Relatório\latex\arq fisica.png"
     inkscape:export-xdpi="90"
     inkscape:export-ydpi="90" />
  <path
     style="fill:#0097d5"
     d="M 15.811336,-6.3638608 L 19.609336,-6.3638608 L 19.609336,-6.2271508 L 15.811336,-6.2271508 L 15.811336,-6.3638608 z "
     id="path128"
     inkscape:export-filename="C:\Documents and Settings\nb15080\Desktop\Estágio\Relatório\latex\arq fisica.png"
     inkscape:export-xdpi="90"
     inkscape:export-ydpi="90" />
  <path
     style="fill:none;fill-opacity:0;stroke:#abe7ff;stroke-width:0.001"
     d="M 15.811336,-6.3638608 L 19.609336,-6.3638608 L 19.609336,-6.2271508 L 15.811336,-6.2271508 L 15.811336,-6.3638608"
     id="path130"
     inkscape:export-filename="C:\Documents and Settings\nb15080\Desktop\Estágio\Relatório\latex\arq fisica.png"
     inkscape:export-xdpi="90"
     inkscape:export-ydpi="90" />
  <path
     style="fill:#00b5ff"
     d="M 20.379136,-6.4474008 L 20.654636,-6.8595808 L 21.151036,-6.8595808 L 20.876236,-6.4474008 L 20.379136,-6.4474008 z "
     id="path132"
     inkscape:export-filename="C:\Documents and Settings\nb15080\Desktop\Estágio\Relatório\latex\arq fisica.png"
     inkscape:export-xdpi="90"
     inkscape:export-ydpi="90" />
  <path
     style="fill:none;fill-opacity:0;stroke:#abe7ff;stroke-width:0.001"
     d="M 20.379136,-6.4474008 L 20.654636,-6.8595808 L 21.151036,-6.8595808 L 20.876236,-6.4474008 L 20.379136,-6.4474008"
     id="path134"
     inkscape:export-filename="C:\Documents and Settings\nb15080\Desktop\Estágio\Relatório\latex\arq fisica.png"
     inkscape:export-xdpi="90"
     inkscape:export-ydpi="90" />
  <path
     style="fill:#005b81"
     d="M 20.876236,-6.3093108 L 21.151036,-6.6124108 L 21.151036,-6.8595808 L 20.876236,-6.4474008 L 20.876236,-6.3093108 z "
     id="path136"
     inkscape:export-filename="C:\Documents and Settings\nb15080\Desktop\Estágio\Relatório\latex\arq fisica.png"
     inkscape:export-xdpi="90"
     inkscape:export-ydpi="90" />
  <path
     style="fill:none;fill-opacity:0;stroke:#abe7ff;stroke-width:0.001"
     d="M 20.876236,-6.3093108 L 21.151036,-6.6124108 L 21.151036,-6.8595808 L 20.876236,-6.4474008 L 20.876236,-6.3093108"
     id="path138"
     inkscape:export-filename="C:\Documents and Settings\nb15080\Desktop\Estágio\Relatório\latex\arq fisica.png"
     inkscape:export-xdpi="90"
     inkscape:export-ydpi="90" />
  <path
     style="fill:#0097d5"
     d="M 20.379136,-6.4474008 L 20.876236,-6.4474008 L 20.876236,-6.3093108 L 20.379136,-6.3093108 L 20.379136,-6.4474008 z "
     id="path140"
     inkscape:export-filename="C:\Documents and Settings\nb15080\Desktop\Estágio\Relatório\latex\arq fisica.png"
     inkscape:export-xdpi="90"
     inkscape:export-ydpi="90" />
  <path
     style="fill:none;fill-opacity:0;stroke:#abe7ff;stroke-width:0.001"
     d="M 20.379136,-6.4474008 L 20.876236,-6.4474008 L 20.876236,-6.3093108 L 20.379136,-6.3093108 L 20.379136,-6.4474008"
     id="path142"
     inkscape:export-filename="C:\Documents and Settings\nb15080\Desktop\Estágio\Relatório\latex\arq fisica.png"
     inkscape:export-xdpi="90"
     inkscape:export-ydpi="90" />
  <path
     style="fill:none;fill-opacity:0;stroke:#d00f31;stroke-width:0.001"
     d="M 17.571936,-9.6129608 L 18.343836,-9.6129608 L 18.150436,-9.4203408 L 18.811236,-9.4203408"
     id="path144"
     inkscape:export-filename="C:\Documents and Settings\nb15080\Desktop\Estágio\Relatório\latex\arq fisica.png"
     inkscape:export-xdpi="90"
     inkscape:export-ydpi="90" />
  <path
     style="fill:none;fill-opacity:0;stroke:#d00f31;stroke-width:0.001"
     d="M 17.489036,-9.6129608 L 18.040736,-9.0627008 L 17.764536,-9.0627008 L 18.232636,-8.5939108"
     id="path146"
     inkscape:export-filename="C:\Documents and Settings\nb15080\Desktop\Estágio\Relatório\latex\arq fisica.png"
     inkscape:export-xdpi="90"
     inkscape:export-ydpi="90" />
  <path
     style="fill:none;fill-opacity:0;stroke:#d00f31;stroke-width:0.001"
     d="M 19.057636,-9.6129608 L 18.508836,-9.0627008 L 18.782936,-9.0627008 L 18.315436,-8.5939108"
     id="path148"
     inkscape:export-filename="C:\Documents and Settings\nb15080\Desktop\Estágio\Relatório\latex\arq fisica.png"
     inkscape:export-xdpi="90"
     inkscape:export-ydpi="90" />
  <path
     style="fill:#0079ab"
     d="M 17.874336,-9.4072208 L 17.872936,-9.4148108 L 17.870836,-9.4224108 L 17.868736,-9.4300008 L 17.864636,-9.4376008 L 17.859136,-9.4445008 L 17.852936,-9.4520908 L 17.846036,-9.4596908 L 17.837736,-9.4665908 L 17.828036,-9.4735008 L 17.817036,-9.4804008 L 17.805236,-9.4866208 L 17.792136,-9.4935208 L 17.779036,-9.4990408 L 17.764536,-9.5052608 L 17.749336,-9.5107808 L 17.732736,-9.5163008 L 17.715536,-9.5211408 L 17.698236,-9.5266608 L 17.678936,-9.5301108 L 17.659536,-9.5349408 L 17.640936,-9.5390908 L 17.619536,-9.5418508 L 17.599536,-9.5453008 L 17.577436,-9.5480608 L 17.556036,-9.5508208 L 17.534636,-9.5529008 L 17.511836,-9.5549708 L 17.489036,-9.5563508 L 17.466236,-9.5570408 L 17.442836,-9.5577308 L 17.420036,-9.5577308 L 17.420036,-9.5577308 L 17.397236,-9.5577308 L 17.374436,-9.5570408 L 17.350936,-9.5563508 L 17.328136,-9.5549708 L 17.306136,-9.5529008 L 17.284036,-9.5508208 L 17.262636,-9.5480608 L 17.241236,-9.5453008 L 17.220436,-9.5418508 L 17.199736,-9.5390908 L 17.180436,-9.5349408 L 17.161136,-9.5301108 L 17.141736,-9.5266608 L 17.125236,-9.5211408 L 17.107936,-9.5163008 L 17.091336,-9.5107808 L 17.075536,-9.5052608 L 17.061636,-9.4990408 L 17.047836,-9.4935208 L 17.034736,-9.4866208 L 17.023036,-9.4804008 L 17.011936,-9.4735008 L 17.002336,-9.4665908 L 16.994736,-9.4596908 L 16.987136,-9.4520908 L 16.980236,-9.4445008 L 16.975336,-9.4376008 L 16.971936,-9.4300008 L 16.967736,-9.4224108 L 16.967136,-9.4148108 L 16.966436,-9.4072208 L 16.966436,-9.4072208 L 16.967136,-9.3989308 L 16.967736,-9.3920308 L 16.971936,-9.3844308 L 16.975336,-9.3768408 L 16.980236,-9.3692408 L 16.987136,-9.3616508 L 16.994736,-9.3547508 L 17.002336,-9.3478408 L 17.011936,-9.3409408 L 17.023036,-9.3333408 L 17.034736,-9.3271308 L 17.047836,-9.3209208 L 17.061636,-9.3147008 L 17.075536,-9.3084908 L 17.091336,-9.3029608 L 17.107936,-9.2974408 L 17.125236,-9.2933008 L 17.141736,-9.2884708 L 17.161136,-9.2836308 L 17.180436,-9.2788008 L 17.199736,-9.2753508 L 17.220436,-9.2719008 L 17.241236,-9.2684408 L 17.262636,-9.2656808 L 17.284036,-9.2636108 L 17.306136,-9.2608508 L 17.328136,-9.2594708 L 17.350936,-9.2580908 L 17.374436,-9.2567108 L 17.397236,-9.2560208 L 17.420036,-9.2560208 L 17.420036,-9.2560208 L 17.442836,-9.2560208 L 17.466236,-9.2567108 L 17.489036,-9.2580908 L 17.511836,-9.2594708 L 17.534636,-9.2608508 L 17.556036,-9.2636108 L 17.577436,-9.2656808 L 17.599536,-9.2684408 L 17.619536,-9.2719008 L 17.640936,-9.2753508 L 17.659536,-9.2788008 L 17.678936,-9.2836308 L 17.698236,-9.2884708 L 17.715536,-9.2933008 L 17.732736,-9.2974408 L 17.749336,-9.3029608 L 17.764536,-9.3084908 L 17.779036,-9.3147008 L 17.792136,-9.3209208 L 17.805236,-9.3271308 L 17.817036,-9.3333408 L 17.828036,-9.3409408 L 17.837736,-9.3478408 L 17.846036,-9.3547508 L 17.852936,-9.3616508 L 17.859136,-9.3692408 L 17.864636,-9.3768408 L 17.868736,-9.3844308 L 17.870836,-9.3920308 L 17.872936,-9.3989308 L 17.874336,-9.4072208 z "
     id="path150"
     inkscape:export-filename="C:\Documents and Settings\nb15080\Desktop\Estágio\Relatório\latex\arq fisica.png"
     inkscape:export-xdpi="90"
     inkscape:export-ydpi="90" />
  <path
     style="fill:none;fill-opacity:0;stroke:#abe7ff;stroke-width:0.001"
     d="M 17.846036,-9.4203408 L 17.846036,-9.4286208 L 17.843936,-9.4341408 L 17.841136,-9.4417408 L 17.837736,-9.4486408 L 17.832236,-9.4548608 L 17.826636,-9.4631408 L 17.819036,-9.4686608 L 17.811436,-9.4748808 L 17.801836,-9.4810908 L 17.791436,-9.4866208 L 17.780436,-9.4935208 L 17.767336,-9.4983508 L 17.754836,-9.5045708 L 17.740336,-9.5107808 L 17.726536,-9.5149208 L 17.709336,-9.5204508 L 17.693436,-9.5239008 L 17.676836,-9.5287308 L 17.658936,-9.5328708 L 17.638836,-9.5370208 L 17.619536,-9.5397808 L 17.600236,-9.5453008 L 17.579536,-9.5459908 L 17.559436,-9.5494408 L 17.538736,-9.5515108 L 17.517336,-9.5535908 L 17.495236,-9.5549708 L 17.473136,-9.5556608 L 17.452436,-9.5570408 L 17.428936,-9.5577308 L 17.406936,-9.5577308 L 17.406936,-9.5577308 L 17.385536,-9.5577308 L 17.362736,-9.5570408 L 17.340636,-9.5556608 L 17.318536,-9.5549708 L 17.297136,-9.5535908 L 17.274336,-9.5515108 L 17.254336,-9.5494408 L 17.233636,-9.5459908 L 17.214236,-9.5453008 L 17.193536,-9.5397808 L 17.174236,-9.5370208 L 17.155536,-9.5328708 L 17.137636,-9.5287308 L 17.120336,-9.5239008 L 17.104536,-9.5204508 L 17.087236,-9.5149208 L 17.073436,-9.5107808 L 17.058936,-9.5045708 L 17.045836,-9.4983508 L 17.033336,-9.4935208 L 17.022336,-9.4866208 L 17.011936,-9.4810908 L 17.002336,-9.4748808 L 16.994736,-9.4686608 L 16.986436,-9.4631408 L 16.982236,-9.4548608 L 16.976736,-9.4486408 L 16.972636,-9.4417408 L 16.969136,-9.4341408 L 16.967736,-9.4286208 L 16.967136,-9.4203408 L 16.967136,-9.4203408 L 16.967736,-9.4134308 L 16.969136,-9.4072208 L 16.972636,-9.4003108 L 16.976736,-9.3920308 L 16.982236,-9.3858108 L 16.986436,-9.3789108 L 16.994736,-9.3727008 L 17.002336,-9.3664808 L 17.011936,-9.3602708 L 17.022336,-9.3540608 L 17.033336,-9.3478408 L 17.045836,-9.3423208 L 17.058936,-9.3361008 L 17.073436,-9.3312708 L 17.087236,-9.3257508 L 17.104536,-9.3202208 L 17.120336,-9.3160808 L 17.137636,-9.3126308 L 17.155536,-9.3078008 L 17.174236,-9.3036508 L 17.193536,-9.3008908 L 17.214236,-9.2967508 L 17.233636,-9.2946808 L 17.254336,-9.2912308 L 17.274336,-9.2891608 L 17.297136,-9.2884708 L 17.318536,-9.2857008 L 17.340636,-9.2850108 L 17.362736,-9.2843208 L 17.385536,-9.2829408 L 17.406936,-9.2829408 L 17.406936,-9.2829408 L 17.428936,-9.2829408 L 17.452436,-9.2843208 L 17.473136,-9.2850108 L 17.495236,-9.2857008 L 17.517336,-9.2884708 L 17.538736,-9.2891608 L 17.559436,-9.2912308 L 17.579536,-9.2946808 L 17.600236,-9.2967508 L 17.619536,-9.3008908 L 17.638836,-9.3036508 L 17.658936,-9.3078008 L 17.676836,-9.3126308 L 17.693436,-9.3160808 L 17.709336,-9.3202208 L 17.726536,-9.3257508 L 17.740336,-9.3312708 L 17.754836,-9.3361008 L 17.767336,-9.3423208 L 17.780436,-9.3478408 L 17.791436,-9.3540608 L 17.801836,-9.3602708 L 17.811436,-9.3664808 L 17.819036,-9.3727008 L 17.826636,-9.3789108 L 17.832236,-9.3858108 L 17.837736,-9.3920308 L 17.841136,-9.4003108 L 17.843936,-9.4072208 L 17.846036,-9.4134308 L 17.846036,-9.4203408"
     id="path152"
     inkscape:export-filename="C:\Documents and Settings\nb15080\Desktop\Estágio\Relatório\latex\arq fisica.png"
     inkscape:export-xdpi="90"
     inkscape:export-ydpi="90" />
  <path
     style="fill:#0079ab"
     d="M 16.967136,-9.6129608 L 16.967136,-9.3941008 L 17.875036,-9.3941008 L 17.875036,-9.6129608 L 16.967136,-9.6129608 z "
     id="path154"
     inkscape:export-filename="C:\Documents and Settings\nb15080\Desktop\Estágio\Relatório\latex\arq fisica.png"
     inkscape:export-xdpi="90"
     inkscape:export-ydpi="90" />
  <path
     style="fill:#00b5ff"
     d="M 17.874336,-9.6281508 L 17.872936,-9.6357508 L 17.870836,-9.6440308 L 17.868736,-9.6509308 L 17.864636,-9.6585308 L 17.859136,-9.6661208 L 17.852936,-9.6737208 L 17.846036,-9.6806208 L 17.837736,-9.6882208 L 17.828036,-9.6944308 L 17.817036,-9.7013408 L 17.805236,-9.7082408 L 17.792136,-9.7144508 L 17.779036,-9.7220508 L 17.764536,-9.7261908 L 17.749336,-9.7324008 L 17.732736,-9.7379308 L 17.715536,-9.7427608 L 17.698236,-9.7475908 L 17.678936,-9.7524308 L 17.659536,-9.7572608 L 17.640936,-9.7607108 L 17.619536,-9.7641608 L 17.599536,-9.7669208 L 17.577436,-9.7703808 L 17.556036,-9.7724508 L 17.534636,-9.7752108 L 17.511836,-9.7765908 L 17.489036,-9.7779708 L 17.466236,-9.7786608 L 17.442836,-9.7793508 L 17.420036,-9.7793508 L 17.420036,-9.7793508 L 17.397236,-9.7793508 L 17.374436,-9.7786608 L 17.350936,-9.7779708 L 17.328136,-9.7765908 L 17.306136,-9.7752108 L 17.284036,-9.7724508 L 17.262636,-9.7703808 L 17.241236,-9.7669208 L 17.220436,-9.7641608 L 17.199736,-9.7607108 L 17.180436,-9.7572608 L 17.161136,-9.7524308 L 17.141736,-9.7475908 L 17.125236,-9.7427608 L 17.107936,-9.7379308 L 17.091336,-9.7324008 L 17.075536,-9.7261908 L 17.061636,-9.7220508 L 17.047836,-9.7144508 L 17.034736,-9.7082408 L 17.023036,-9.7013408 L 17.011936,-9.6944308 L 17.002336,-9.6882208 L 16.994736,-9.6806208 L 16.987136,-9.6737208 L 16.980236,-9.6661208 L 16.975336,-9.6585308 L 16.971936,-9.6509308 L 16.967736,-9.6440308 L 16.967136,-9.6357508 L 16.966436,-9.6281508 L 16.966436,-9.6281508 L 16.967136,-9.6205608 L 16.967736,-9.6122708 L 16.971936,-9.6053708 L 16.975336,-9.5977708 L 16.980236,-9.5894908 L 16.987136,-9.5825808 L 16.994736,-9.5756808 L 17.002336,-9.5680808 L 17.011936,-9.5625608 L 17.023036,-9.5549708 L 17.034736,-9.5473708 L 17.047836,-9.5411608 L 17.061636,-9.5349408 L 17.075536,-9.5301108 L 17.091336,-9.5232108 L 17.107936,-9.5176808 L 17.125236,-9.5135408 L 17.141736,-9.5087108 L 17.161136,-9.5038808 L 17.180436,-9.4990408 L 17.199736,-9.4955908 L 17.220436,-9.4921408 L 17.241236,-9.4893808 L 17.262636,-9.4859208 L 17.284036,-9.4838508 L 17.306136,-9.4810908 L 17.328136,-9.4804008 L 17.350936,-9.4783308 L 17.374436,-9.4783308 L 17.397236,-9.4762608 L 17.420036,-9.4762608 L 17.420036,-9.4762608 L 17.442836,-9.4762608 L 17.466236,-9.4783308 L 17.489036,-9.4783308 L 17.511836,-9.4804008 L 17.534636,-9.4810908 L 17.556036,-9.4838508 L 17.577436,-9.4859208 L 17.599536,-9.4893808 L 17.619536,-9.4921408 L 17.640936,-9.4955908 L 17.659536,-9.4990408 L 17.678936,-9.5038808 L 17.698236,-9.5087108 L 17.715536,-9.5135408 L 17.732736,-9.5176808 L 17.749336,-9.5232108 L 17.764536,-9.5301108 L 17.779036,-9.5349408 L 17.792136,-9.5411608 L 17.805236,-9.5473708 L 17.817036,-9.5549708 L 17.828036,-9.5625608 L 17.837736,-9.5680808 L 17.846036,-9.5756808 L 17.852936,-9.5825808 L 17.859136,-9.5894908 L 17.864636,-9.5977708 L 17.868736,-9.6053708 L 17.870836,-9.6122708 L 17.872936,-9.6205608 L 17.874336,-9.6281508 z "
     id="path156"
     inkscape:export-filename="C:\Documents and Settings\nb15080\Desktop\Estágio\Relatório\latex\arq fisica.png"
     inkscape:export-xdpi="90"
     inkscape:export-ydpi="90" />
  <path
     style="fill:none;fill-opacity:0;stroke:#abe7ff;stroke-width:0.001"
     d="M 17.846036,-9.6412708 L 17.846036,-9.6488608 L 17.843936,-9.6543908 L 17.841136,-9.6619808 L 17.837736,-9.6702708 L 17.832236,-9.6757908 L 17.826636,-9.6833808 L 17.819036,-9.6889108 L 17.811436,-9.6951208 L 17.801836,-9.7013408 L 17.791436,-9.7075508 L 17.780436,-9.7137608 L 17.767336,-9.7199808 L 17.754836,-9.7255008 L 17.740336,-9.7303308 L 17.726536,-9.7358608 L 17.709336,-9.7413808 L 17.693436,-9.7455208 L 17.676836,-9.7489708 L 17.658936,-9.7545008 L 17.638836,-9.7579508 L 17.619536,-9.7607108 L 17.600236,-9.7648508 L 17.579536,-9.7669208 L 17.559436,-9.7703808 L 17.538736,-9.7724508 L 17.517336,-9.7738308 L 17.495236,-9.7759008 L 17.473136,-9.7765908 L 17.452436,-9.7772808 L 17.428936,-9.7786608 L 17.406936,-9.7786608 L 17.406936,-9.7786608 L 17.385536,-9.7786608 L 17.362736,-9.7772808 L 17.340636,-9.7765908 L 17.318536,-9.7759008 L 17.297136,-9.7738308 L 17.274336,-9.7724508 L 17.254336,-9.7703808 L 17.233636,-9.7669208 L 17.214236,-9.7648508 L 17.193536,-9.7607108 L 17.174236,-9.7579508 L 17.155536,-9.7545008 L 17.137636,-9.7489708 L 17.120336,-9.7455208 L 17.104536,-9.7413808 L 17.087236,-9.7358608 L 17.073436,-9.7303308 L 17.058936,-9.7255008 L 17.045836,-9.7199808 L 17.033336,-9.7137608 L 17.022336,-9.7075508 L 17.011936,-9.7013408 L 17.002336,-9.6951208 L 16.994736,-9.6889108 L 16.986436,-9.6833808 L 16.982236,-9.6757908 L 16.976736,-9.6702708 L 16.972636,-9.6619808 L 16.969136,-9.6543908 L 16.967736,-9.6488608 L 16.967136,-9.6412708 L 16.967136,-9.6412708 L 16.967736,-9.6336708 L 16.969136,-9.6274608 L 16.972636,-9.6205608 L 16.976736,-9.6129608 L 16.982236,-9.6067508 L 16.986436,-9.5991508 L 16.994736,-9.5929408 L 17.002336,-9.5867308 L 17.011936,-9.5805108 L 17.022336,-9.5743008 L 17.033336,-9.5680808 L 17.045836,-9.5632508 L 17.058936,-9.5570408 L 17.073436,-9.5515108 L 17.087236,-9.5459908 L 17.104536,-9.5411608 L 17.120336,-9.5370208 L 17.137636,-9.5328708 L 17.155536,-9.5287308 L 17.174236,-9.5239008 L 17.193536,-9.5211408 L 17.214236,-9.5169908 L 17.233636,-9.5149208 L 17.254336,-9.5114708 L 17.274336,-9.5107808 L 17.297136,-9.5080208 L 17.318536,-9.5073308 L 17.340636,-9.5052608 L 17.362736,-9.5045708 L 17.385536,-9.5038808 L 17.406936,-9.5038808 L 17.406936,-9.5038808 L 17.428936,-9.5038808 L 17.452436,-9.5045708 L 17.473136,-9.5052608 L 17.495236,-9.5073308 L 17.517336,-9.5080208 L 17.538736,-9.5107808 L 17.559436,-9.5114708 L 17.579536,-9.5149208 L 17.600236,-9.5169908 L 17.619536,-9.5211408 L 17.638836,-9.5239008 L 17.658936,-9.5287308 L 17.676836,-9.5328708 L 17.693436,-9.5370208 L 17.709336,-9.5411608 L 17.726536,-9.5459908 L 17.740336,-9.5515108 L 17.754836,-9.5570408 L 17.767336,-9.5632508 L 17.780436,-9.5680808 L 17.791436,-9.5743008 L 17.801836,-9.5805108 L 17.811436,-9.5867308 L 17.819036,-9.5929408 L 17.826636,-9.5991508 L 17.832236,-9.6067508 L 17.837736,-9.6129608 L 17.841136,-9.6205608 L 17.843936,-9.6274608 L 17.846036,-9.6336708 L 17.846036,-9.6412708"
     id="path158"
     inkscape:export-filename="C:\Documents and Settings\nb15080\Desktop\Estágio\Relatório\latex\arq fisica.png"
     inkscape:export-xdpi="90"
     inkscape:export-ydpi="90" />
  <path
     style="fill:#000000"
     d="M 17.435236,-9.6682008 L 17.489036,-9.6412708 L 17.655436,-9.6958108 L 17.737636,-9.6682008 L 17.683036,-9.7234308 L 17.489036,-9.7234308 L 17.571936,-9.7234308 L 17.435236,-9.6682008 z "
     id="path160"
     inkscape:export-filename="C:\Documents and Settings\nb15080\Desktop\Estágio\Relatório\latex\arq fisica.png"
     inkscape:export-xdpi="90"
     inkscape:export-ydpi="90" />
  <path
     style="fill:#000000"
     d="M 17.406936,-9.5860408 L 17.324036,-9.6129608 L 17.187336,-9.5577308 L 17.104536,-9.5860408 L 17.132836,-9.5038808 L 17.324036,-9.5038808 L 17.241836,-9.5301108 L 17.406936,-9.5860408 z "
     id="path162"
     inkscape:export-filename="C:\Documents and Settings\nb15080\Desktop\Estágio\Relatório\latex\arq fisica.png"
     inkscape:export-xdpi="90"
     inkscape:export-ydpi="90" />
  <path
     style="fill:#000000"
     d="M 17.132836,-9.7234308 L 17.187336,-9.7524308 L 17.353036,-9.6682008 L 17.406936,-9.6958108 L 17.379936,-9.6412708 L 17.187336,-9.6412708 L 17.270236,-9.6682008 L 17.132836,-9.7234308 z "
     id="path164"
     inkscape:export-filename="C:\Documents and Settings\nb15080\Desktop\Estágio\Relatório\latex\arq fisica.png"
     inkscape:export-xdpi="90"
     inkscape:export-ydpi="90" />
  <path
     style="fill:#000000"
     d="M 17.709336,-9.5301108 L 17.655436,-9.5038808 L 17.489036,-9.5860408 L 17.406936,-9.5577308 L 17.462136,-9.6129608 L 17.655436,-9.6129608 L 17.571936,-9.5860408 L 17.709336,-9.5301108 z "
     id="path166"
     inkscape:export-filename="C:\Documents and Settings\nb15080\Desktop\Estágio\Relatório\latex\arq fisica.png"
     inkscape:export-xdpi="90"
     inkscape:export-ydpi="90" />
  <path
     style="fill:#ffffff"
     d="M 17.435236,-9.6412708 L 17.489036,-9.6412708 L 17.655436,-9.6958108 L 17.737636,-9.6682008 L 17.683036,-9.7234308 L 17.517336,-9.7234308 L 17.571936,-9.7234308 L 17.435236,-9.6412708 z "
     id="path168"
     inkscape:export-filename="C:\Documents and Settings\nb15080\Desktop\Estágio\Relatório\latex\arq fisica.png"
     inkscape:export-xdpi="90"
     inkscape:export-ydpi="90" />
  <path
     style="fill:#ffffff"
     d="M 17.406936,-9.5860408 L 17.353036,-9.6129608 L 17.187336,-9.5577308 L 17.104536,-9.5577308 L 17.159036,-9.5038808 L 17.353036,-9.5038808 L 17.270236,-9.5301108 L 17.406936,-9.5860408 z "
     id="path170"
     inkscape:export-filename="C:\Documents and Settings\nb15080\Desktop\Estágio\Relatório\latex\arq fisica.png"
     inkscape:export-xdpi="90"
     inkscape:export-ydpi="90" />
  <path
     style="fill:#ffffff"
     d="M 17.132836,-9.7234308 L 17.187336,-9.7234308 L 17.353036,-9.6682008 L 17.435236,-9.6958108 L 17.379936,-9.6412708 L 17.187336,-9.6412708 L 17.270236,-9.6412708 L 17.132836,-9.7234308 z "
     id="path172"
     inkscape:export-filename="C:\Documents and Settings\nb15080\Desktop\Estágio\Relatório\latex\arq fisica.png"
     inkscape:export-xdpi="90"
     inkscape:export-ydpi="90" />
  <path
     style="fill:#ffffff"
     d="M 17.709336,-9.5301108 L 17.655436,-9.5038808 L 17.489036,-9.5577308 L 17.435236,-9.5577308 L 17.462136,-9.6129608 L 17.655436,-9.6129608 L 17.571936,-9.5860408 L 17.709336,-9.5301108 z "
     id="path174"
     inkscape:export-filename="C:\Documents and Settings\nb15080\Desktop\Estágio\Relatório\latex\arq fisica.png"
     inkscape:export-xdpi="90"
     inkscape:export-ydpi="90" />
  <path
     style="fill:none;fill-opacity:0;stroke:#abe7ff;stroke-width:0.001"
     d="M 16.967136,-9.6412708 L 16.967136,-9.4217208"
     id="path176"
     inkscape:export-filename="C:\Documents and Settings\nb15080\Desktop\Estágio\Relatório\latex\arq fisica.png"
     inkscape:export-xdpi="90"
     inkscape:export-ydpi="90" />
  <path
     style="fill:none;fill-opacity:0;stroke:#abe7ff;stroke-width:0.001"
     d="M 17.847336,-9.6412708 L 17.847336,-9.4217208"
     id="path178"
     inkscape:export-filename="C:\Documents and Settings\nb15080\Desktop\Estágio\Relatório\latex\arq fisica.png"
     inkscape:export-xdpi="90"
     inkscape:export-ydpi="90" />
  <path
     style="fill:#0079ab"
     d="M 19.525736,-9.4072208 L 19.525736,-9.4148108 L 19.523736,-9.4224108 L 19.520936,-9.4300008 L 19.517536,-9.4376008 L 19.511936,-9.4445008 L 19.505736,-9.4520908 L 19.498836,-9.4596908 L 19.489236,-9.4665908 L 19.480936,-9.4735008 L 19.469836,-9.4804008 L 19.458136,-9.4866208 L 19.445736,-9.4935208 L 19.431236,-9.4990408 L 19.417436,-9.5052608 L 19.401536,-9.5107808 L 19.385636,-9.5163008 L 19.368336,-9.5211408 L 19.351136,-9.5266608 L 19.332436,-9.5301108 L 19.312436,-9.5349408 L 19.293136,-9.5390908 L 19.273136,-9.5418508 L 19.251736,-9.5453008 L 19.230236,-9.5480608 L 19.208836,-9.5508208 L 19.186836,-9.5529008 L 19.163336,-9.5549708 L 19.141236,-9.5563508 L 19.119136,-9.5570408 L 19.095636,-9.5577308 L 19.072836,-9.5577308 L 19.072836,-9.5577308 L 19.050036,-9.5577308 L 19.026636,-9.5570408 L 19.003836,-9.5563508 L 18.981036,-9.5549708 L 18.958936,-9.5529008 L 18.936836,-9.5508208 L 18.914736,-9.5480608 L 18.894036,-9.5453008 L 18.872636,-9.5418508 L 18.852636,-9.5390908 L 18.832636,-9.5349408 L 18.813236,-9.5301108 L 18.794636,-9.5266608 L 18.777336,-9.5211408 L 18.760136,-9.5163008 L 18.743536,-9.5107808 L 18.728336,-9.5052608 L 18.713836,-9.4990408 L 18.700036,-9.4935208 L 18.687636,-9.4866208 L 18.675836,-9.4804008 L 18.664836,-9.4735008 L 18.655836,-9.4665908 L 18.646836,-9.4596908 L 18.639936,-9.4520908 L 18.633736,-9.4445008 L 18.628236,-9.4376008 L 18.624136,-9.4300008 L 18.620636,-9.4224108 L 18.618536,-9.4148108 L 18.618536,-9.4072208 L 18.618536,-9.4072208 L 18.618536,-9.3989308 L 18.620636,-9.3920308 L 18.624136,-9.3844308 L 18.628236,-9.3768408 L 18.633736,-9.3692408 L 18.639936,-9.3616508 L 18.646836,-9.3547508 L 18.655836,-9.3478408 L 18.664836,-9.3409408 L 18.675836,-9.3333408 L 18.687636,-9.3271308 L 18.700036,-9.3209208 L 18.713836,-9.3147008 L 18.728336,-9.3084908 L 18.743536,-9.3029608 L 18.760136,-9.2974408 L 18.777336,-9.2933008 L 18.794636,-9.2884708 L 18.813236,-9.2836308 L 18.832636,-9.2788008 L 18.852636,-9.2753508 L 18.872636,-9.2719008 L 18.894036,-9.2684408 L 18.914736,-9.2656808 L 18.936836,-9.2636108 L 18.958936,-9.2608508 L 18.981036,-9.2594708 L 19.003836,-9.2580908 L 19.026636,-9.2567108 L 19.050036,-9.2560208 L 19.072836,-9.2560208 L 19.072836,-9.2560208 L 19.095636,-9.2560208 L 19.119136,-9.2567108 L 19.141236,-9.2580908 L 19.163336,-9.2594708 L 19.186836,-9.2608508 L 19.208836,-9.2636108 L 19.230236,-9.2656808 L 19.251736,-9.2684408 L 19.273136,-9.2719008 L 19.293136,-9.2753508 L 19.312436,-9.2788008 L 19.332436,-9.2836308 L 19.351136,-9.2884708 L 19.368336,-9.2933008 L 19.385636,-9.2974408 L 19.401536,-9.3029608 L 19.417436,-9.3084908 L 19.431236,-9.3147008 L 19.445736,-9.3209208 L 19.458136,-9.3271308 L 19.469836,-9.3333408 L 19.480936,-9.3409408 L 19.489236,-9.3478408 L 19.498836,-9.3547508 L 19.505736,-9.3616508 L 19.511936,-9.3692408 L 19.517536,-9.3768408 L 19.520936,-9.3844308 L 19.523736,-9.3920308 L 19.525736,-9.3989308 L 19.525736,-9.4072208 z "
     id="path180"
     inkscape:export-filename="C:\Documents and Settings\nb15080\Desktop\Estágio\Relatório\latex\arq fisica.png"
     inkscape:export-xdpi="90"
     inkscape:export-ydpi="90" />
  <path
     style="fill:none;fill-opacity:0;stroke:#abe7ff;stroke-width:0.001"
     d="M 19.498836,-9.4203408 L 19.498836,-9.4286208 L 19.496736,-9.4341408 L 19.494036,-9.4417408 L 19.489236,-9.4486408 L 19.484336,-9.4548608 L 19.479536,-9.4631408 L 19.471936,-9.4686608 L 19.464336,-9.4748808 L 19.454636,-9.4810908 L 19.443636,-9.4866208 L 19.433236,-9.4935208 L 19.420136,-9.4983508 L 19.406336,-9.5045708 L 19.393236,-9.5107808 L 19.378036,-9.5149208 L 19.362136,-9.5204508 L 19.346236,-9.5239008 L 19.328336,-9.5287308 L 19.311036,-9.5328708 L 19.291736,-9.5370208 L 19.271736,-9.5397808 L 19.252336,-9.5453008 L 19.232336,-9.5459908 L 19.211636,-9.5494408 L 19.191636,-9.5515108 L 19.169536,-9.5535908 L 19.148136,-9.5549708 L 19.126036,-9.5556608 L 19.103936,-9.5570408 L 19.080436,-9.5577308 L 19.057636,-9.5577308 L 19.057636,-9.5577308 L 19.036936,-9.5577308 L 19.014136,-9.5570408 L 18.992136,-9.5556608 L 18.970736,-9.5549708 L 18.948636,-9.5535908 L 18.926536,-9.5515108 L 18.905836,-9.5494408 L 18.885036,-9.5459908 L 18.865036,-9.5453008 L 18.845736,-9.5397808 L 18.825736,-9.5370208 L 18.807036,-9.5328708 L 18.789136,-9.5287308 L 18.771836,-9.5239008 L 18.756636,-9.5204508 L 18.739436,-9.5149208 L 18.724936,-9.5107808 L 18.711136,-9.5045708 L 18.697236,-9.4983508 L 18.685536,-9.4935208 L 18.673836,-9.4866208 L 18.662736,-9.4810908 L 18.653136,-9.4748808 L 18.645536,-9.4686608 L 18.637936,-9.4631408 L 18.632336,-9.4548608 L 18.628236,-9.4486408 L 18.622736,-9.4417408 L 18.620636,-9.4341408 L 18.618536,-9.4286208 L 18.618536,-9.4203408 L 18.618536,-9.4203408 L 18.618536,-9.4134308 L 18.620636,-9.4072208 L 18.622736,-9.4003108 L 18.628236,-9.3920308 L 18.632336,-9.3858108 L 18.637936,-9.3789108 L 18.645536,-9.3727008 L 18.653136,-9.3664808 L 18.662736,-9.3602708 L 18.673836,-9.3540608 L 18.685536,-9.3478408 L 18.697236,-9.3423208 L 18.711136,-9.3361008 L 18.724936,-9.3312708 L 18.739436,-9.3257508 L 18.756636,-9.3202208 L 18.771836,-9.3160808 L 18.789136,-9.3126308 L 18.807036,-9.3078008 L 18.825736,-9.3036508 L 18.845736,-9.3008908 L 18.865036,-9.2967508 L 18.885036,-9.2946808 L 18.905836,-9.2912308 L 18.926536,-9.2891608 L 18.948636,-9.2884708 L 18.970736,-9.2857008 L 18.992136,-9.2850108 L 19.014136,-9.2843208 L 19.036936,-9.2829408 L 19.057636,-9.2829408 L 19.057636,-9.2829408 L 19.080436,-9.2829408 L 19.103936,-9.2843208 L 19.126036,-9.2850108 L 19.148136,-9.2857008 L 19.169536,-9.2884708 L 19.191636,-9.2891608 L 19.211636,-9.2912308 L 19.232336,-9.2946808 L 19.252336,-9.2967508 L 19.271736,-9.3008908 L 19.291736,-9.3036508 L 19.311036,-9.3078008 L 19.328336,-9.3126308 L 19.346236,-9.3160808 L 19.362136,-9.3202208 L 19.378036,-9.3257508 L 19.393236,-9.3312708 L 19.406336,-9.3361008 L 19.420136,-9.3423208 L 19.433236,-9.3478408 L 19.443636,-9.3540608 L 19.454636,-9.3602708 L 19.464336,-9.3664808 L 19.471936,-9.3727008 L 19.479536,-9.3789108 L 19.484336,-9.3858108 L 19.489236,-9.3920308 L 19.494036,-9.4003108 L 19.496736,-9.4072208 L 19.498836,-9.4134308 L 19.498836,-9.4203408"
     id="path182"
     inkscape:export-filename="C:\Documents and Settings\nb15080\Desktop\Estágio\Relatório\latex\arq fisica.png"
     inkscape:export-xdpi="90"
     inkscape:export-ydpi="90" />
  <path
     style="fill:#0079ab"
     d="M 18.618536,-9.6129608 L 18.618536,-9.3941008 L 19.527136,-9.3941008 L 19.527136,-9.6129608 L 18.618536,-9.6129608 z "
     id="path184"
     inkscape:export-filename="C:\Documents and Settings\nb15080\Desktop\Estágio\Relatório\latex\arq fisica.png"
     inkscape:export-xdpi="90"
     inkscape:export-ydpi="90" />
  <path
     style="fill:#00b5ff"
     d="M 19.525736,-9.6281508 L 19.525736,-9.6357508 L 19.523736,-9.6440308 L 19.520936,-9.6509308 L 19.517536,-9.6585308 L 19.511936,-9.6661208 L 19.505736,-9.6737208 L 19.498836,-9.6806208 L 19.489236,-9.6882208 L 19.480936,-9.6944308 L 19.469836,-9.7013408 L 19.458136,-9.7082408 L 19.445736,-9.7144508 L 19.431236,-9.7220508 L 19.417436,-9.7261908 L 19.401536,-9.7324008 L 19.385636,-9.7379308 L 19.368336,-9.7427608 L 19.351136,-9.7475908 L 19.332436,-9.7524308 L 19.312436,-9.7572608 L 19.293136,-9.7607108 L 19.273136,-9.7641608 L 19.251736,-9.7669208 L 19.230236,-9.7703808 L 19.208836,-9.7724508 L 19.186836,-9.7752108 L 19.163336,-9.7765908 L 19.141236,-9.7779708 L 19.119136,-9.7786608 L 19.095636,-9.7793508 L 19.072836,-9.7793508 L 19.072836,-9.7793508 L 19.050036,-9.7793508 L 19.026636,-9.7786608 L 19.003836,-9.7779708 L 18.981036,-9.7765908 L 18.958936,-9.7752108 L 18.936836,-9.7724508 L 18.914736,-9.7703808 L 18.894036,-9.7669208 L 18.872636,-9.7641608 L 18.852636,-9.7607108 L 18.832636,-9.7572608 L 18.813236,-9.7524308 L 18.794636,-9.7475908 L 18.777336,-9.7427608 L 18.760136,-9.7379308 L 18.743536,-9.7324008 L 18.728336,-9.7261908 L 18.713836,-9.7220508 L 18.700036,-9.7144508 L 18.687636,-9.7082408 L 18.675836,-9.7013408 L 18.664836,-9.6944308 L 18.655836,-9.6882208 L 18.646836,-9.6806208 L 18.639936,-9.6737208 L 18.633736,-9.6661208 L 18.628236,-9.6585308 L 18.624136,-9.6509308 L 18.620636,-9.6440308 L 18.618536,-9.6357508 L 18.618536,-9.6281508 L 18.618536,-9.6281508 L 18.618536,-9.6205608 L 18.620636,-9.6122708 L 18.624136,-9.6053708 L 18.628236,-9.5977708 L 18.633736,-9.5894908 L 18.639936,-9.5825808 L 18.646836,-9.5756808 L 18.655836,-9.5680808 L 18.664836,-9.5625608 L 18.675836,-9.5549708 L 18.687636,-9.5473708 L 18.700036,-9.5411608 L 18.713836,-9.5349408 L 18.728336,-9.5301108 L 18.743536,-9.5232108 L 18.760136,-9.5176808 L 18.777336,-9.5135408 L 18.794636,-9.5087108 L 18.813236,-9.5038808 L 18.832636,-9.4990408 L 18.852636,-9.4955908 L 18.872636,-9.4921408 L 18.894036,-9.4893808 L 18.914736,-9.4859208 L 18.936836,-9.4838508 L 18.958936,-9.4810908 L 18.981036,-9.4804008 L 19.003836,-9.4783308 L 19.026636,-9.4783308 L 19.050036,-9.4762608 L 19.072836,-9.4762608 L 19.072836,-9.4762608 L 19.095636,-9.4762608 L 19.119136,-9.4783308 L 19.141236,-9.4783308 L 19.163336,-9.4804008 L 19.186836,-9.4810908 L 19.208836,-9.4838508 L 19.230236,-9.4859208 L 19.251736,-9.4893808 L 19.273136,-9.4921408 L 19.293136,-9.4955908 L 19.312436,-9.4990408 L 19.332436,-9.5038808 L 19.351136,-9.5087108 L 19.368336,-9.5135408 L 19.385636,-9.5176808 L 19.401536,-9.5232108 L 19.417436,-9.5301108 L 19.431236,-9.5349408 L 19.445736,-9.5411608 L 19.458136,-9.5473708 L 19.469836,-9.5549708 L 19.480936,-9.5625608 L 19.489236,-9.5680808 L 19.498836,-9.5756808 L 19.505736,-9.5825808 L 19.511936,-9.5894908 L 19.517536,-9.5977708 L 19.520936,-9.6053708 L 19.523736,-9.6122708 L 19.525736,-9.6205608 L 19.525736,-9.6281508 z "
     id="path186"
     inkscape:export-filename="C:\Documents and Settings\nb15080\Desktop\Estágio\Relatório\latex\arq fisica.png"
     inkscape:export-xdpi="90"
     inkscape:export-ydpi="90" />
  <path
     style="fill:none;fill-opacity:0;stroke:#abe7ff;stroke-width:0.001"
     d="M 19.498836,-9.6412708 L 19.498836,-9.6488608 L 19.496736,-9.6543908 L 19.494036,-9.6619808 L 19.489236,-9.6702708 L 19.484336,-9.6757908 L 19.479536,-9.6833808 L 19.471936,-9.6889108 L 19.464336,-9.6951208 L 19.454636,-9.7013408 L 19.443636,-9.7075508 L 19.433236,-9.7137608 L 19.420136,-9.7199808 L 19.406336,-9.7255008 L 19.393236,-9.7303308 L 19.378036,-9.7358608 L 19.362136,-9.7413808 L 19.346236,-9.7455208 L 19.328336,-9.7489708 L 19.311036,-9.7545008 L 19.291736,-9.7579508 L 19.271736,-9.7607108 L 19.252336,-9.7648508 L 19.232336,-9.7669208 L 19.211636,-9.7703808 L 19.191636,-9.7724508 L 19.169536,-9.7738308 L 19.148136,-9.7759008 L 19.126036,-9.7765908 L 19.103936,-9.7772808 L 19.080436,-9.7786608 L 19.057636,-9.7786608 L 19.057636,-9.7786608 L 19.036936,-9.7786608 L 19.014136,-9.7772808 L 18.992136,-9.7765908 L 18.970736,-9.7759008 L 18.948636,-9.7738308 L 18.926536,-9.7724508 L 18.905836,-9.7703808 L 18.885036,-9.7669208 L 18.865036,-9.7648508 L 18.845736,-9.7607108 L 18.825736,-9.7579508 L 18.807036,-9.7545008 L 18.789136,-9.7489708 L 18.771836,-9.7455208 L 18.756636,-9.7413808 L 18.739436,-9.7358608 L 18.724936,-9.7303308 L 18.711136,-9.7255008 L 18.697236,-9.7199808 L 18.685536,-9.7137608 L 18.673836,-9.7075508 L 18.662736,-9.7013408 L 18.653136,-9.6951208 L 18.645536,-9.6889108 L 18.637936,-9.6833808 L 18.632336,-9.6757908 L 18.628236,-9.6702708 L 18.622736,-9.6619808 L 18.620636,-9.6543908 L 18.618536,-9.6488608 L 18.618536,-9.6412708 L 18.618536,-9.6412708 L 18.618536,-9.6336708 L 18.620636,-9.6274608 L 18.622736,-9.6205608 L 18.628236,-9.6129608 L 18.632336,-9.6067508 L 18.637936,-9.5991508 L 18.645536,-9.5929408 L 18.653136,-9.5867308 L 18.662736,-9.5805108 L 18.673836,-9.5743008 L 18.685536,-9.5680808 L 18.697236,-9.5632508 L 18.711136,-9.5570408 L 18.724936,-9.5515108 L 18.739436,-9.5459908 L 18.756636,-9.5411608 L 18.771836,-9.5370208 L 18.789136,-9.5328708 L 18.807036,-9.5287308 L 18.825736,-9.5239008 L 18.845736,-9.5211408 L 18.865036,-9.5169908 L 18.885036,-9.5149208 L 18.905836,-9.5114708 L 18.926536,-9.5107808 L 18.948636,-9.5080208 L 18.970736,-9.5073308 L 18.992136,-9.5052608 L 19.014136,-9.5045708 L 19.036936,-9.5038808 L 19.057636,-9.5038808 L 19.057636,-9.5038808 L 19.080436,-9.5038808 L 19.103936,-9.5045708 L 19.126036,-9.5052608 L 19.148136,-9.5073308 L 19.169536,-9.5080208 L 19.191636,-9.5107808 L 19.211636,-9.5114708 L 19.232336,-9.5149208 L 19.252336,-9.5169908 L 19.271736,-9.5211408 L 19.291736,-9.5239008 L 19.311036,-9.5287308 L 19.328336,-9.5328708 L 19.346236,-9.5370208 L 19.362136,-9.5411608 L 19.378036,-9.5459908 L 19.393236,-9.5515108 L 19.406336,-9.5570408 L 19.420136,-9.5632508 L 19.433236,-9.5680808 L 19.443636,-9.5743008 L 19.454636,-9.5805108 L 19.464336,-9.5867308 L 19.471936,-9.5929408 L 19.479536,-9.5991508 L 19.484336,-9.6067508 L 19.489236,-9.6129608 L 19.494036,-9.6205608 L 19.496736,-9.6274608 L 19.498836,-9.6336708 L 19.498836,-9.6412708"
     id="path188"
     inkscape:export-filename="C:\Documents and Settings\nb15080\Desktop\Estágio\Relatório\latex\arq fisica.png"
     inkscape:export-xdpi="90"
     inkscape:export-ydpi="90" />
  <path
     style="fill:#000000"
     d="M 19.086036,-9.6682008 L 19.141236,-9.6412708 L 19.306236,-9.6958108 L 19.389036,-9.6682008 L 19.333836,-9.7234308 L 19.141236,-9.7234308 L 19.224036,-9.7234308 L 19.086036,-9.6682008 z "
     id="path190"
     inkscape:export-filename="C:\Documents and Settings\nb15080\Desktop\Estágio\Relatório\latex\arq fisica.png"
     inkscape:export-xdpi="90"
     inkscape:export-ydpi="90" />
  <path
     style="fill:#000000"
     d="M 19.057636,-9.5860408 L 18.976936,-9.6129608 L 18.838136,-9.5577308 L 18.756636,-9.5860408 L 18.782936,-9.5038808 L 18.976936,-9.5038808 L 18.893336,-9.5301108 L 19.057636,-9.5860408 z "
     id="path192"
     inkscape:export-filename="C:\Documents and Settings\nb15080\Desktop\Estágio\Relatório\latex\arq fisica.png"
     inkscape:export-xdpi="90"
     inkscape:export-ydpi="90" />
  <path
     style="fill:#000000"
     d="M 18.782936,-9.7234308 L 18.838136,-9.7524308 L 19.003836,-9.6682008 L 19.057636,-9.6958108 L 19.030736,-9.6412708 L 18.838136,-9.6412708 L 18.920936,-9.6682008 L 18.782936,-9.7234308 z "
     id="path194"
     inkscape:export-filename="C:\Documents and Settings\nb15080\Desktop\Estágio\Relatório\latex\arq fisica.png"
     inkscape:export-xdpi="90"
     inkscape:export-ydpi="90" />
  <path
     style="fill:#000000"
     d="M 19.362136,-9.5301108 L 19.306236,-9.5038808 L 19.141236,-9.5860408 L 19.057636,-9.5577308 L 19.114336,-9.6129608 L 19.306236,-9.6129608 L 19.224036,-9.5860408 L 19.362136,-9.5301108 z "
     id="path196"
     inkscape:export-filename="C:\Documents and Settings\nb15080\Desktop\Estágio\Relatório\latex\arq fisica.png"
     inkscape:export-xdpi="90"
     inkscape:export-ydpi="90" />
  <path
     style="fill:#ffffff"
     d="M 19.086036,-9.6412708 L 19.141236,-9.6412708 L 19.306236,-9.6958108 L 19.389036,-9.6682008 L 19.333836,-9.7234308 L 19.169536,-9.7234308 L 19.224036,-9.7234308 L 19.086036,-9.6412708 z "
     id="path198"
     inkscape:export-filename="C:\Documents and Settings\nb15080\Desktop\Estágio\Relatório\latex\arq fisica.png"
     inkscape:export-xdpi="90"
     inkscape:export-ydpi="90" />
  <path
     style="fill:#ffffff"
     d="M 19.057636,-9.5860408 L 19.003836,-9.6129608 L 18.838136,-9.5577308 L 18.756636,-9.5577308 L 18.811236,-9.5038808 L 19.003836,-9.5038808 L 18.920936,-9.5301108 L 19.057636,-9.5860408 z "
     id="path200"
     inkscape:export-filename="C:\Documents and Settings\nb15080\Desktop\Estágio\Relatório\latex\arq fisica.png"
     inkscape:export-xdpi="90"
     inkscape:export-ydpi="90" />
  <path
     style="fill:#ffffff"
     d="M 18.782936,-9.7234308 L 18.838136,-9.7234308 L 19.003836,-9.6682008 L 19.086036,-9.6958108 L 19.030736,-9.6412708 L 18.838136,-9.6412708 L 18.920936,-9.6412708 L 18.782936,-9.7234308 z "
     id="path202"
     inkscape:export-filename="C:\Documents and Settings\nb15080\Desktop\Estágio\Relatório\latex\arq fisica.png"
     inkscape:export-xdpi="90"
     inkscape:export-ydpi="90" />
  <path
     style="fill:#ffffff"
     d="M 19.362136,-9.5301108 L 19.306236,-9.5038808 L 19.141236,-9.5577308 L 19.086036,-9.5577308 L 19.114336,-9.6129608 L 19.306236,-9.6129608 L 19.224036,-9.5860408 L 19.362136,-9.5301108 z "
     id="path204"
     inkscape:export-filename="C:\Documents and Settings\nb15080\Desktop\Estágio\Relatório\latex\arq fisica.png"
     inkscape:export-xdpi="90"
     inkscape:export-ydpi="90" />
  <path
     style="fill:none;fill-opacity:0;stroke:#abe7ff;stroke-width:0.001"
     d="M 18.618536,-9.6412708 L 18.618536,-9.4217208"
     id="path206"
     inkscape:export-filename="C:\Documents and Settings\nb15080\Desktop\Estágio\Relatório\latex\arq fisica.png"
     inkscape:export-xdpi="90"
     inkscape:export-ydpi="90" />
  <path
     style="fill:none;fill-opacity:0;stroke:#abe7ff;stroke-width:0.001"
     d="M 19.498836,-9.6412708 L 19.498836,-9.4217208"
     id="path208"
     inkscape:export-filename="C:\Documents and Settings\nb15080\Desktop\Estágio\Relatório\latex\arq fisica.png"
     inkscape:export-xdpi="90"
     inkscape:export-ydpi="90" />
  <path
     style="fill:#0079ab"
     d="M 18.700036,-8.4710108 L 18.699336,-8.4793008 L 18.697236,-8.4868908 L 18.694536,-8.4944908 L 18.690336,-8.5013908 L 18.685536,-8.5089808 L 18.677936,-8.5165808 L 18.671736,-8.5234808 L 18.662736,-8.5310808 L 18.653136,-8.5372908 L 18.642736,-8.5448908 L 18.630336,-8.5511008 L 18.618536,-8.5573108 L 18.604736,-8.5635308 L 18.590936,-8.5697408 L 18.574436,-8.5752608 L 18.558536,-8.5807908 L 18.541236,-8.5849308 L 18.524036,-8.5904508 L 18.505336,-8.5946008 L 18.486036,-8.6001208 L 18.466636,-8.6035708 L 18.445936,-8.6063308 L 18.425236,-8.6097908 L 18.403836,-8.6125508 L 18.381036,-8.6153108 L 18.359636,-8.6173808 L 18.336836,-8.6187608 L 18.314836,-8.6201408 L 18.292036,-8.6215208 L 18.267836,-8.6222108 L 18.246436,-8.6222108 L 18.246436,-8.6222108 L 18.223636,-8.6222108 L 18.200136,-8.6215208 L 18.177436,-8.6201408 L 18.154636,-8.6187608 L 18.131836,-8.6173808 L 18.110436,-8.6153108 L 18.087636,-8.6125508 L 18.066236,-8.6097908 L 18.045536,-8.6063308 L 18.025536,-8.6035708 L 18.006136,-8.6001208 L 17.986836,-8.5946008 L 17.968236,-8.5904508 L 17.950936,-8.5849308 L 17.933636,-8.5807908 L 17.917136,-8.5752608 L 17.901236,-8.5697408 L 17.887436,-8.5635308 L 17.872936,-8.5573108 L 17.861136,-8.5511008 L 17.849436,-8.5448908 L 17.838436,-8.5372908 L 17.828736,-8.5310808 L 17.820436,-8.5234808 L 17.813536,-8.5165808 L 17.807336,-8.5089808 L 17.801836,-8.5013908 L 17.797636,-8.4944908 L 17.794236,-8.4868908 L 17.792136,-8.4793008 L 17.792136,-8.4710108 L 17.792136,-8.4710108 L 17.792136,-8.4634208 L 17.794236,-8.4558208 L 17.797636,-8.4482308 L 17.801836,-8.4406308 L 17.807336,-8.4337308 L 17.813536,-8.4261308 L 17.820436,-8.4192308 L 17.828736,-8.4116408 L 17.838436,-8.4047308 L 17.849436,-8.3978308 L 17.861136,-8.3916108 L 17.872936,-8.3854008 L 17.887436,-8.3791908 L 17.901236,-8.3736608 L 17.917136,-8.3674508 L 17.933636,-8.3619308 L 17.950936,-8.3570908 L 17.968236,-8.3515708 L 17.986836,-8.3481208 L 18.006136,-8.3432808 L 18.025536,-8.3391408 L 18.045536,-8.3363808 L 18.066236,-8.3329308 L 18.087636,-8.3301708 L 18.110436,-8.3274008 L 18.131836,-8.3253308 L 18.154636,-8.3239508 L 18.177436,-8.3218808 L 18.200136,-8.3218808 L 18.223636,-8.3205008 L 18.246436,-8.3205008 L 18.246436,-8.3205008 L 18.267836,-8.3205008 L 18.292036,-8.3218808 L 18.314836,-8.3218808 L 18.336836,-8.3239508 L 18.359636,-8.3253308 L 18.381036,-8.3274008 L 18.403836,-8.3301708 L 18.425236,-8.3329308 L 18.445936,-8.3363808 L 18.466636,-8.3391408 L 18.486036,-8.3432808 L 18.505336,-8.3481208 L 18.524036,-8.3515708 L 18.541236,-8.3570908 L 18.558536,-8.3619308 L 18.574436,-8.3674508 L 18.590936,-8.3736608 L 18.604736,-8.3791908 L 18.618536,-8.3854008 L 18.630336,-8.3916108 L 18.642736,-8.3978308 L 18.653136,-8.4047308 L 18.662736,-8.4116408 L 18.671736,-8.4192308 L 18.677936,-8.4261308 L 18.685536,-8.4337308 L 18.690336,-8.4406308 L 18.694536,-8.4482308 L 18.697236,-8.4558208 L 18.699336,-8.4634208 L 18.700036,-8.4710108 z "
     id="path210"
     inkscape:export-filename="C:\Documents and Settings\nb15080\Desktop\Estágio\Relatório\latex\arq fisica.png"
     inkscape:export-xdpi="90"
     inkscape:export-ydpi="90" />
  <path
     style="fill:none;fill-opacity:0;stroke:#abe7ff;stroke-width:0.001"
     d="M 18.672436,-8.4855108 L 18.671736,-8.4924108 L 18.670336,-8.4986308 L 18.667636,-8.5055308 L 18.662736,-8.5138208 L 18.657936,-8.5193408 L 18.653136,-8.5269308 L 18.645536,-8.5331508 L 18.637936,-8.5393608 L 18.628236,-8.5462708 L 18.617236,-8.5517908 L 18.605436,-8.5580008 L 18.593736,-8.5635308 L 18.580636,-8.5690508 L 18.566836,-8.5745708 L 18.551636,-8.5807908 L 18.535736,-8.5842408 L 18.520536,-8.5890708 L 18.501936,-8.5932108 L 18.484636,-8.5966708 L 18.466636,-8.6015008 L 18.445936,-8.6049508 L 18.426636,-8.6084008 L 18.407336,-8.6111708 L 18.385936,-8.6139308 L 18.365836,-8.6160008 L 18.343836,-8.6180708 L 18.321736,-8.6187608 L 18.300336,-8.6201408 L 18.277536,-8.6215208 L 18.254736,-8.6222108 L 18.232636,-8.6222108 L 18.232636,-8.6222108 L 18.211236,-8.6222108 L 18.188436,-8.6215208 L 18.166336,-8.6201408 L 18.144236,-8.6187608 L 18.122136,-8.6180708 L 18.100736,-8.6160008 L 18.080036,-8.6139308 L 18.058636,-8.6111708 L 18.039336,-8.6084008 L 18.018636,-8.6049508 L 17.999236,-8.6015008 L 17.981336,-8.5966708 L 17.962636,-8.5932108 L 17.945436,-8.5890708 L 17.930236,-8.5842408 L 17.912936,-8.5807908 L 17.899136,-8.5745708 L 17.885336,-8.5690508 L 17.870836,-8.5635308 L 17.859136,-8.5580008 L 17.847336,-8.5517908 L 17.837736,-8.5462708 L 17.828036,-8.5393608 L 17.819036,-8.5331508 L 17.811436,-8.5269308 L 17.807336,-8.5193408 L 17.801836,-8.5138208 L 17.797636,-8.5055308 L 17.794236,-8.4986308 L 17.793536,-8.4924108 L 17.792136,-8.4855108 L 17.792136,-8.4855108 L 17.793536,-8.4772208 L 17.794236,-8.4710108 L 17.797636,-8.4641108 L 17.801836,-8.4572008 L 17.807336,-8.4509908 L 17.811436,-8.4433908 L 17.819036,-8.4371808 L 17.828036,-8.4302808 L 17.837736,-8.4240608 L 17.847336,-8.4178508 L 17.859136,-8.4116408 L 17.870836,-8.4081808 L 17.885336,-8.4005908 L 17.899136,-8.3957608 L 17.912936,-8.3909208 L 17.930236,-8.3854008 L 17.945436,-8.3805708 L 17.962636,-8.3764208 L 17.981336,-8.3736608 L 17.999236,-8.3681408 L 18.018636,-8.3646908 L 18.039336,-8.3612308 L 18.058636,-8.3584708 L 18.080036,-8.3564008 L 18.100736,-8.3543308 L 18.122136,-8.3515708 L 18.144236,-8.3508808 L 18.166336,-8.3495008 L 18.188436,-8.3488108 L 18.211236,-8.3481208 L 18.232636,-8.3481208 L 18.232636,-8.3481208 L 18.254736,-8.3481208 L 18.277536,-8.3488108 L 18.300336,-8.3495008 L 18.321736,-8.3508808 L 18.343836,-8.3515708 L 18.365836,-8.3543308 L 18.385936,-8.3564008 L 18.407336,-8.3584708 L 18.426636,-8.3612308 L 18.445936,-8.3646908 L 18.466636,-8.3681408 L 18.484636,-8.3736608 L 18.501936,-8.3764208 L 18.520536,-8.3805708 L 18.535736,-8.3854008 L 18.551636,-8.3909208 L 18.566836,-8.3957608 L 18.580636,-8.4005908 L 18.593736,-8.4081808 L 18.605436,-8.4116408 L 18.617236,-8.4178508 L 18.628236,-8.4240608 L 18.637936,-8.4302808 L 18.645536,-8.4371808 L 18.653136,-8.4433908 L 18.657936,-8.4509908 L 18.662736,-8.4572008 L 18.667636,-8.4641108 L 18.670336,-8.4710108 L 18.671736,-8.4772208 L 18.672436,-8.4855108"
     id="path212"
     inkscape:export-filename="C:\Documents and Settings\nb15080\Desktop\Estágio\Relatório\latex\arq fisica.png"
     inkscape:export-xdpi="90"
     inkscape:export-ydpi="90" />
  <path
     style="fill:#0079ab"
     d="M 17.792136,-8.6774508 L 17.792136,-8.4572008 L 18.700736,-8.4572008 L 18.700736,-8.6774508 L 17.792136,-8.6774508 z "
     id="path214"
     inkscape:export-filename="C:\Documents and Settings\nb15080\Desktop\Estágio\Relatório\latex\arq fisica.png"
     inkscape:export-xdpi="90"
     inkscape:export-ydpi="90" />
  <path
     style="fill:#00b5ff"
     d="M 18.700036,-8.6919408 L 18.699336,-8.7002308 L 18.697236,-8.7078208 L 18.694536,-8.7147308 L 18.690336,-8.7230108 L 18.685536,-8.7306108 L 18.677936,-8.7382008 L 18.671736,-8.7444208 L 18.662736,-8.7533908 L 18.653136,-8.7589208 L 18.642736,-8.7658208 L 18.630336,-8.7727208 L 18.618536,-8.7789408 L 18.604736,-8.7851508 L 18.590936,-8.7906708 L 18.574436,-8.7968908 L 18.558536,-8.8024108 L 18.541236,-8.8072408 L 18.524036,-8.8120808 L 18.505336,-8.8162208 L 18.486036,-8.8210508 L 18.466636,-8.8252008 L 18.445936,-8.8279608 L 18.425236,-8.8314108 L 18.403836,-8.8341708 L 18.381036,-8.8369308 L 18.359636,-8.8396908 L 18.336836,-8.8403808 L 18.314836,-8.8424608 L 18.292036,-8.8431508 L 18.267836,-8.8438408 L 18.246436,-8.8438408 L 18.246436,-8.8438408 L 18.223636,-8.8438408 L 18.200136,-8.8431508 L 18.177436,-8.8424608 L 18.154636,-8.8403808 L 18.131836,-8.8396908 L 18.110436,-8.8369308 L 18.087636,-8.8341708 L 18.066236,-8.8314108 L 18.045536,-8.8279608 L 18.025536,-8.8252008 L 18.006136,-8.8210508 L 17.986836,-8.8162208 L 17.968236,-8.8120808 L 17.950936,-8.8072408 L 17.933636,-8.8024108 L 17.917136,-8.7968908 L 17.901236,-8.7906708 L 17.887436,-8.7851508 L 17.872936,-8.7789408 L 17.861136,-8.7727208 L 17.849436,-8.7658208 L 17.838436,-8.7589208 L 17.828736,-8.7533908 L 17.820436,-8.7444208 L 17.813536,-8.7382008 L 17.807336,-8.7306108 L 17.801836,-8.7230108 L 17.797636,-8.7147308 L 17.794236,-8.7078208 L 17.792136,-8.7002308 L 17.792136,-8.6919408 L 17.792136,-8.6919408 L 17.792136,-8.6843508 L 17.794236,-8.6767608 L 17.797636,-8.6698508 L 17.801836,-8.6615708 L 17.807336,-8.6539708 L 17.813536,-8.6470708 L 17.820436,-8.6401608 L 17.828736,-8.6325708 L 17.838436,-8.6256608 L 17.849436,-8.6187608 L 17.861136,-8.6118608 L 17.872936,-8.6056408 L 17.887436,-8.6001208 L 17.901236,-8.5939108 L 17.917136,-8.5876908 L 17.933636,-8.5828608 L 17.950936,-8.5773408 L 17.968236,-8.5725008 L 17.986836,-8.5683608 L 18.006136,-8.5635308 L 18.025536,-8.5593808 L 18.045536,-8.5566208 L 18.066236,-8.5531708 L 18.087636,-8.5504108 L 18.110436,-8.5483408 L 18.131836,-8.5462708 L 18.154636,-8.5442008 L 18.177436,-8.5421208 L 18.200136,-8.5414308 L 18.223636,-8.5407408 L 18.246436,-8.5407408 L 18.246436,-8.5407408 L 18.267836,-8.5407408 L 18.292036,-8.5414308 L 18.314836,-8.5421208 L 18.336836,-8.5442008 L 18.359636,-8.5462708 L 18.381036,-8.5483408 L 18.403836,-8.5504108 L 18.425236,-8.5531708 L 18.445936,-8.5566208 L 18.466636,-8.5593808 L 18.486036,-8.5635308 L 18.505336,-8.5683608 L 18.524036,-8.5725008 L 18.541236,-8.5773408 L 18.558536,-8.5828608 L 18.574436,-8.5876908 L 18.590936,-8.5939108 L 18.604736,-8.6001208 L 18.618536,-8.6056408 L 18.630336,-8.6118608 L 18.642736,-8.6187608 L 18.653136,-8.6256608 L 18.662736,-8.6325708 L 18.671736,-8.6401608 L 18.677936,-8.6470708 L 18.685536,-8.6539708 L 18.690336,-8.6615708 L 18.694536,-8.6698508 L 18.697236,-8.6767608 L 18.699336,-8.6843508 L 18.700036,-8.6919408 z "
     id="path216"
     inkscape:export-filename="C:\Documents and Settings\nb15080\Desktop\Estágio\Relatório\latex\arq fisica.png"
     inkscape:export-xdpi="90"
     inkscape:export-ydpi="90" />
  <path
     style="fill:none;fill-opacity:0;stroke:#abe7ff;stroke-width:0.001"
     d="M 18.672436,-8.7050608 L 18.671736,-8.7119708 L 18.670336,-8.7188708 L 18.667636,-8.7250808 L 18.662736,-8.7326808 L 18.657936,-8.7388908 L 18.653136,-8.7464908 L 18.645536,-8.7533908 L 18.637936,-8.7589208 L 18.628236,-8.7651308 L 18.617236,-8.7713408 L 18.605436,-8.7775608 L 18.593736,-8.7830808 L 18.580636,-8.7899808 L 18.566836,-8.7941308 L 18.551636,-8.7989608 L 18.535736,-8.8051708 L 18.520536,-8.8086308 L 18.501936,-8.8127708 L 18.484636,-8.8176008 L 18.466636,-8.8210508 L 18.445936,-8.8245008 L 18.426636,-8.8279608 L 18.407336,-8.8307208 L 18.385936,-8.8334808 L 18.365836,-8.8362408 L 18.343836,-8.8376208 L 18.321736,-8.8396908 L 18.300336,-8.8396908 L 18.277536,-8.8403808 L 18.254736,-8.8424608 L 18.232636,-8.8424608 L 18.232636,-8.8424608 L 18.211236,-8.8424608 L 18.188436,-8.8403808 L 18.166336,-8.8396908 L 18.144236,-8.8396908 L 18.122136,-8.8376208 L 18.100736,-8.8362408 L 18.080036,-8.8334808 L 18.058636,-8.8307208 L 18.039336,-8.8279608 L 18.018636,-8.8245008 L 17.999236,-8.8210508 L 17.981336,-8.8176008 L 17.962636,-8.8127708 L 17.945436,-8.8086308 L 17.930236,-8.8051708 L 17.912936,-8.7989608 L 17.899136,-8.7941308 L 17.885336,-8.7899808 L 17.870836,-8.7830808 L 17.859136,-8.7775608 L 17.847336,-8.7713408 L 17.837736,-8.7651308 L 17.828036,-8.7589208 L 17.819036,-8.7533908 L 17.811436,-8.7464908 L 17.807336,-8.7388908 L 17.801836,-8.7326808 L 17.797636,-8.7250808 L 17.794236,-8.7188708 L 17.793536,-8.7119708 L 17.792136,-8.7050608 L 17.792136,-8.7050608 L 17.793536,-8.6967808 L 17.794236,-8.6905608 L 17.797636,-8.6843508 L 17.801836,-8.6767608 L 17.807336,-8.6705408 L 17.811436,-8.6622608 L 17.819036,-8.6560408 L 17.828036,-8.6498308 L 17.837736,-8.6436208 L 17.847336,-8.6374008 L 17.859136,-8.6311908 L 17.870836,-8.6263608 L 17.885336,-8.6201408 L 17.899136,-8.6153108 L 17.912936,-8.6097908 L 17.930236,-8.6049508 L 17.945436,-8.6001208 L 17.962636,-8.5959808 L 17.981336,-8.5925208 L 17.999236,-8.5876908 L 18.018636,-8.5842408 L 18.039336,-8.5807908 L 18.058636,-8.5780308 L 18.080036,-8.5752608 L 18.100736,-8.5738808 L 18.122136,-8.5711208 L 18.144236,-8.5704308 L 18.166336,-8.5690508 L 18.188436,-8.5683608 L 18.211236,-8.5669808 L 18.232636,-8.5669808 L 18.232636,-8.5669808 L 18.254736,-8.5669808 L 18.277536,-8.5683608 L 18.300336,-8.5690508 L 18.321736,-8.5704308 L 18.343836,-8.5711208 L 18.365836,-8.5738808 L 18.385936,-8.5752608 L 18.407336,-8.5780308 L 18.426636,-8.5807908 L 18.445936,-8.5842408 L 18.466636,-8.5876908 L 18.484636,-8.5925208 L 18.501936,-8.5959808 L 18.520536,-8.6001208 L 18.535736,-8.6049508 L 18.551636,-8.6097908 L 18.566836,-8.6153108 L 18.580636,-8.6201408 L 18.593736,-8.6263608 L 18.605436,-8.6311908 L 18.617236,-8.6374008 L 18.628236,-8.6436208 L 18.637936,-8.6498308 L 18.645536,-8.6560408 L 18.653136,-8.6622608 L 18.657936,-8.6705408 L 18.662736,-8.6767608 L 18.667636,-8.6843508 L 18.670336,-8.6905608 L 18.671736,-8.6967808 L 18.672436,-8.7050608"
     id="path218"
     inkscape:export-filename="C:\Documents and Settings\nb15080\Desktop\Estágio\Relatório\latex\arq fisica.png"
     inkscape:export-xdpi="90"
     inkscape:export-ydpi="90" />
  <path
     style="fill:#000000"
     d="M 18.260236,-8.7326808 L 18.315436,-8.7050608 L 18.480536,-8.7596108 L 18.563336,-8.7326808 L 18.508836,-8.7879108 L 18.315436,-8.7879108 L 18.398336,-8.7879108 L 18.260236,-8.7326808 z "
     id="path220"
     inkscape:export-filename="C:\Documents and Settings\nb15080\Desktop\Estágio\Relatório\latex\arq fisica.png"
     inkscape:export-xdpi="90"
     inkscape:export-ydpi="90" />
  <path
     style="fill:#000000"
     d="M 18.232636,-8.6498308 L 18.150436,-8.6774508 L 18.012436,-8.6222108 L 17.930236,-8.6498308 L 17.958536,-8.5669808 L 18.150436,-8.5669808 L 18.068336,-8.5939108 L 18.232636,-8.6498308 z "
     id="path222"
     inkscape:export-filename="C:\Documents and Settings\nb15080\Desktop\Estágio\Relatório\latex\arq fisica.png"
     inkscape:export-xdpi="90"
     inkscape:export-ydpi="90" />
  <path
     style="fill:#000000"
     d="M 17.958536,-8.7879108 L 18.012436,-8.8148408 L 18.177436,-8.7326808 L 18.232636,-8.7596108 L 18.206436,-8.7050608 L 18.012436,-8.7050608 L 18.095236,-8.7326808 L 17.958536,-8.7879108 z "
     id="path224"
     inkscape:export-filename="C:\Documents and Settings\nb15080\Desktop\Estágio\Relatório\latex\arq fisica.png"
     inkscape:export-xdpi="90"
     inkscape:export-ydpi="90" />
  <path
     style="fill:#000000"
     d="M 18.535736,-8.5939108 L 18.480536,-8.5669808 L 18.315436,-8.6498308 L 18.232636,-8.6222108 L 18.288536,-8.6774508 L 18.480536,-8.6774508 L 18.398336,-8.6498308 L 18.535736,-8.5939108 z "
     id="path226"
     inkscape:export-filename="C:\Documents and Settings\nb15080\Desktop\Estágio\Relatório\latex\arq fisica.png"
     inkscape:export-xdpi="90"
     inkscape:export-ydpi="90" />
  <path
     style="fill:#ffffff"
     d="M 18.260236,-8.7050608 L 18.315436,-8.7050608 L 18.480536,-8.7596108 L 18.563336,-8.7326808 L 18.508836,-8.7879108 L 18.343836,-8.7879108 L 18.398336,-8.7879108 L 18.260236,-8.7050608 z "
     id="path228"
     inkscape:export-filename="C:\Documents and Settings\nb15080\Desktop\Estágio\Relatório\latex\arq fisica.png"
     inkscape:export-xdpi="90"
     inkscape:export-ydpi="90" />
  <path
     style="fill:#ffffff"
     d="M 18.232636,-8.6498308 L 18.177436,-8.6774508 L 18.012436,-8.6222108 L 17.930236,-8.6222108 L 17.985436,-8.5669808 L 18.177436,-8.5669808 L 18.095236,-8.5939108 L 18.232636,-8.6498308 z "
     id="path230"
     inkscape:export-filename="C:\Documents and Settings\nb15080\Desktop\Estágio\Relatório\latex\arq fisica.png"
     inkscape:export-xdpi="90"
     inkscape:export-ydpi="90" />
  <path
     style="fill:#ffffff"
     d="M 17.958536,-8.7879108 L 18.012436,-8.7879108 L 18.177436,-8.7326808 L 18.260236,-8.7596108 L 18.206436,-8.7050608 L 18.012436,-8.7050608 L 18.095236,-8.7050608 L 17.958536,-8.7879108 z "
     id="path232"
     inkscape:export-filename="C:\Documents and Settings\nb15080\Desktop\Estágio\Relatório\latex\arq fisica.png"
     inkscape:export-xdpi="90"
     inkscape:export-ydpi="90" />
  <path
     style="fill:#ffffff"
     d="M 18.535736,-8.5939108 L 18.480536,-8.5669808 L 18.315436,-8.6222108 L 18.260236,-8.6222108 L 18.288536,-8.6774508 L 18.480536,-8.6774508 L 18.398336,-8.6498308 L 18.535736,-8.5939108 z "
     id="path234"
     inkscape:export-filename="C:\Documents and Settings\nb15080\Desktop\Estágio\Relatório\latex\arq fisica.png"
     inkscape:export-xdpi="90"
     inkscape:export-ydpi="90" />
  <path
     style="fill:none;fill-opacity:0;stroke:#abe7ff;stroke-width:0.001"
     d="M 17.792136,-8.7050608 L 17.792136,-8.4855108"
     id="path236"
     inkscape:export-filename="C:\Documents and Settings\nb15080\Desktop\Estágio\Relatório\latex\arq fisica.png"
     inkscape:export-xdpi="90"
     inkscape:export-ydpi="90" />
  <path
     style="fill:none;fill-opacity:0;stroke:#abe7ff;stroke-width:0.001"
     d="M 18.672436,-8.7050608 L 18.672436,-8.4855108"
     id="path238"
     inkscape:export-filename="C:\Documents and Settings\nb15080\Desktop\Estágio\Relatório\latex\arq fisica.png"
     inkscape:export-xdpi="90"
     inkscape:export-ydpi="90" />
</svg>
