<?xml version="1.0" encoding="UTF-8" standalone="no"?>
<!-- Created with Inkscape (http://www.inkscape.org/) -->
<svg
   xmlns:dc="http://purl.org/dc/elements/1.1/"
   xmlns:cc="http://web.resource.org/cc/"
   xmlns:rdf="http://www.w3.org/1999/02/22-rdf-syntax-ns#"
   xmlns:svg="http://www.w3.org/2000/svg"
   xmlns="http://www.w3.org/2000/svg"
   xmlns:sodipodi="http://sodipodi.sourceforge.net/DTD/sodipodi-0.dtd"
   xmlns:inkscape="http://www.inkscape.org/namespaces/inkscape"
   width="744.09448819"
   height="1052.3622047"
   id="svg2"
   sodipodi:version="0.32"
   inkscape:version="0.45.1"
   sodipodi:docbase="C:\Documents and Settings\nb15080\Desktop"
   sodipodi:docname="drawing.svg"
   inkscape:output_extension="org.inkscape.output.svg.inkscape">
  <defs
     id="defs4" />
  <sodipodi:namedview
     id="base"
     pagecolor="#ffffff"
     bordercolor="#666666"
     borderopacity="1.0"
     gridtolerance="10000"
     guidetolerance="10"
     objecttolerance="10"
     inkscape:pageopacity="0.0"
     inkscape:pageshadow="2"
     inkscape:zoom="0.35"
     inkscape:cx="375"
     inkscape:cy="520"
     inkscape:document-units="px"
     inkscape:current-layer="layer1"
     inkscape:window-width="1440"
     inkscape:window-height="844"
     inkscape:window-x="-4"
     inkscape:window-y="-4"
     showgrid="true" />
  <metadata
     id="metadata7">
    <rdf:RDF>
      <cc:Work
         rdf:about="">
        <dc:format>image/svg+xml</dc:format>
        <dc:type
           rdf:resource="http://purl.org/dc/dcmitype/StillImage" />
      </cc:Work>
    </rdf:RDF>
  </metadata>
  <g
     inkscape:label="Layer 1"
     inkscape:groupmode="layer"
     id="layer1">
    <path
       sodipodi:type="arc"
       style="fill:#0000ff;fill-opacity:0.49803922;fill-rule:evenodd;stroke:none;stroke-width:1px;stroke-linecap:butt;stroke-linejoin:miter;stroke-opacity:1"
       id="path8982"
       sodipodi:cx="302.85715"
       sodipodi:cy="423.79074"
       sodipodi:rx="302.85715"
       sodipodi:ry="302.85715"
       d="M 605.71429 423.79074 A 302.85715 302.85715 0 1 1  0,423.79074 A 302.85715 302.85715 0 1 1  605.71429 423.79074 z"
       transform="matrix(0.8254717,0,0,0.8254717,309.99999,-377.46508)"
       inkscape:export-filename="C:\Documents and Settings\nb15080\Desktop\bem posto.png"
       inkscape:export-xdpi="90"
       inkscape:export-ydpi="90" />
    <path
       sodipodi:type="arc"
       style="fill:#ff0000;fill-opacity:0.49803922;fill-rule:evenodd;stroke:none;stroke-width:1px;stroke-linecap:butt;stroke-linejoin:miter;stroke-opacity:1"
       id="path8980"
       sodipodi:cx="302.85715"
       sodipodi:cy="423.79074"
       sodipodi:rx="302.85715"
       sodipodi:ry="302.85715"
       d="M 605.71429 423.79074 A 302.85715 302.85715 0 1 1  0,423.79074 A 302.85715 302.85715 0 1 1  605.71429 423.79074 z"
       transform="matrix(0.8254717,0,0,0.8254717,250,-207.46508)"
       inkscape:export-filename="C:\Documents and Settings\nb15080\Desktop\bem posto.png"
       inkscape:export-xdpi="90"
       inkscape:export-ydpi="90" />
    <path
       sodipodi:type="arc"
       style="fill:#00ff00;fill-opacity:0.49803922;fill-rule:evenodd;stroke:none;stroke-width:1px;stroke-linecap:butt;stroke-linejoin:miter;stroke-opacity:1"
       id="path8984"
       sodipodi:cx="302.85715"
       sodipodi:cy="423.79074"
       sodipodi:rx="302.85715"
       sodipodi:ry="302.85715"
       d="M 605.71429 423.79074 A 302.85715 302.85715 0 1 1  0,423.79074 A 302.85715 302.85715 0 1 1  605.71429 423.79074 z"
       transform="matrix(0.8254717,0,0,0.8254717,380,-207.46508)"
       inkscape:export-filename="C:\Documents and Settings\nb15080\Desktop\bem posto.png"
       inkscape:export-xdpi="90"
       inkscape:export-ydpi="90" />
    <path
       sodipodi:type="arc"
       style="fill:#ff0000;fill-opacity:0.49803922;fill-rule:evenodd;stroke:none;stroke-width:1px;stroke-linecap:butt;stroke-linejoin:miter;stroke-opacity:1"
       id="path2160"
       sodipodi:cx="302.85715"
       sodipodi:cy="423.79074"
       sodipodi:rx="302.85715"
       sodipodi:ry="302.85715"
       d="M 605.71429 423.79074 A 302.85715 302.85715 0 1 1  0,423.79074 A 302.85715 302.85715 0 1 1  605.71429 423.79074 z"
       transform="matrix(0.8254717,0,0,0.8254717,-250,702.53492)"
       inkscape:export-filename="C:\Documents and Settings\nb15080\Desktop\mal posto.png"
       inkscape:export-xdpi="90"
       inkscape:export-ydpi="90" />
    <path
       sodipodi:type="arc"
       style="fill:#0000ff;fill-opacity:0.49803922;fill-rule:evenodd;stroke:none;stroke-width:1px;stroke-linecap:butt;stroke-linejoin:miter;stroke-opacity:1"
       id="path4123"
       sodipodi:cx="302.85715"
       sodipodi:cy="423.79074"
       sodipodi:rx="302.85715"
       sodipodi:ry="302.85715"
       d="M 605.71429 423.79074 A 302.85715 302.85715 0 1 1  0,423.79074 A 302.85715 302.85715 0 1 1  605.71429 423.79074 z"
       transform="matrix(0.8254717,0,0,0.8254717,-124.85713,486.10634)"
       inkscape:export-filename="C:\Documents and Settings\nb15080\Desktop\mal posto.png"
       inkscape:export-xdpi="90"
       inkscape:export-ydpi="90" />
    <path
       sodipodi:type="arc"
       style="fill:#00ff00;fill-opacity:0.49803922;fill-rule:evenodd;stroke:none;stroke-width:1px;stroke-linecap:butt;stroke-linejoin:miter;stroke-opacity:1"
       id="path4127"
       sodipodi:cx="302.85715"
       sodipodi:cy="423.79074"
       sodipodi:rx="302.85715"
       sodipodi:ry="302.85715"
       d="M 605.71429 423.79074 A 302.85715 302.85715 0 1 1  0,423.79074 A 302.85715 302.85715 0 1 1  605.71429 423.79074 z"
       transform="matrix(0.8254717,0,0,0.8254717,0,702.53492)"
       inkscape:export-filename="C:\Documents and Settings\nb15080\Desktop\mal posto.png"
       inkscape:export-xdpi="90"
       inkscape:export-ydpi="90" />
    <rect
       style="fill:none;fill-opacity:1;stroke:#000000;stroke-width:3.66569138;stroke-miterlimit:4;stroke-dasharray:none;stroke-opacity:1"
       id="rect8007"
       width="246.33435"
       height="216.33432"
       x="1.8328457"
       y="834.19501"
       inkscape:export-filename="C:\Documents and Settings\nb15080\Desktop\mal posto.png"
       inkscape:export-xdpi="90"
       inkscape:export-ydpi="90" />
    <path
       sodipodi:type="arc"
       style="fill:#0000ff;fill-opacity:1;stroke:#000000;stroke-width:3;stroke-miterlimit:4;stroke-dasharray:none;stroke-opacity:1"
       id="path4125"
       sodipodi:cx="221.42857"
       sodipodi:cy="323.79074"
       sodipodi:rx="70"
       sodipodi:ry="68.571426"
       d="M 291.42857 323.79074 A 70 68.571426 0 1 1  151.42857,323.79074 A 70 68.571426 0 1 1  291.42857 323.79074 z"
       transform="matrix(0.3495743,0,0,0.3568572,47.594258,720.52941)"
       inkscape:export-filename="C:\Documents and Settings\nb15080\Desktop\mal posto.png"
       inkscape:export-xdpi="90"
       inkscape:export-ydpi="90" />
    <path
       sodipodi:type="arc"
       style="fill:#ff0000;fill-opacity:1;stroke:#000000;stroke-width:3;stroke-miterlimit:4;stroke-dasharray:none;stroke-opacity:1"
       id="path3152"
       sodipodi:cx="221.42857"
       sodipodi:cy="323.79074"
       sodipodi:rx="70"
       sodipodi:ry="68.571426"
       d="M 291.42857 323.79074 A 70 68.571426 0 1 1  151.42857,323.79074 A 70 68.571426 0 1 1  291.42857 323.79074 z"
       transform="matrix(0.3495743,0,0,0.3568572,-77.405746,936.81515)"
       inkscape:export-filename="C:\Documents and Settings\nb15080\Desktop\mal posto.png"
       inkscape:export-xdpi="90"
       inkscape:export-ydpi="90" />
    <path
       sodipodi:type="arc"
       style="fill:#00ff00;fill-opacity:1;stroke:#000000;stroke-width:3;stroke-miterlimit:4;stroke-dasharray:none;stroke-opacity:1"
       id="path4129"
       sodipodi:cx="221.42857"
       sodipodi:cy="323.79074"
       sodipodi:rx="70"
       sodipodi:ry="68.571426"
       d="M 291.42857 323.79074 A 70 68.571426 0 1 1  151.42857,323.79074 A 70 68.571426 0 1 1  291.42857 323.79074 z"
       transform="matrix(0.3495743,0,0,0.3568572,172.59423,936.8151)"
       inkscape:export-filename="C:\Documents and Settings\nb15080\Desktop\mal posto.png"
       inkscape:export-xdpi="90"
       inkscape:export-ydpi="90" />
    <rect
       style="fill:none;fill-opacity:1;stroke:#000000;stroke-width:3.66569138;stroke-miterlimit:4;stroke-dasharray:none;stroke-opacity:1"
       id="rect8986"
       width="246.33435"
       height="216.33432"
       x="441.83286"
       y="-25.804983"
       inkscape:export-filename="C:\Documents and Settings\nb15080\Desktop\bem posto.png"
       inkscape:export-xdpi="90"
       inkscape:export-ydpi="90" />
    <path
       sodipodi:type="arc"
       style="fill:#0000ff;fill-opacity:1;stroke:#000000;stroke-width:3;stroke-miterlimit:4;stroke-dasharray:none;stroke-opacity:1"
       id="path8988"
       sodipodi:cx="221.42857"
       sodipodi:cy="323.79074"
       sodipodi:rx="70"
       sodipodi:ry="68.571426"
       d="M 291.42857 323.79074 A 70 68.571426 0 1 1  151.42857,323.79074 A 70 68.571426 0 1 1  291.42857 323.79074 z"
       transform="matrix(0.3495743,0,0,0.3568572,482.45137,-143.04201)"
       inkscape:export-filename="C:\Documents and Settings\nb15080\Desktop\bem posto.png"
       inkscape:export-xdpi="90"
       inkscape:export-ydpi="90" />
    <path
       sodipodi:type="arc"
       style="fill:#ff0000;fill-opacity:1;stroke:#000000;stroke-width:3;stroke-miterlimit:4;stroke-dasharray:none;stroke-opacity:1"
       id="path8990"
       sodipodi:cx="221.42857"
       sodipodi:cy="323.79074"
       sodipodi:rx="70"
       sodipodi:ry="68.571426"
       d="M 291.42857 323.79074 A 70 68.571426 0 1 1  151.42857,323.79074 A 70 68.571426 0 1 1  291.42857 323.79074 z"
       transform="matrix(0.3495743,0,0,0.3568572,422.59425,26.815135)"
       inkscape:export-filename="C:\Documents and Settings\nb15080\Desktop\bem posto.png"
       inkscape:export-xdpi="90"
       inkscape:export-ydpi="90" />
    <path
       sodipodi:type="arc"
       style="fill:#00ff00;fill-opacity:1;stroke:#000000;stroke-width:3;stroke-miterlimit:4;stroke-dasharray:none;stroke-opacity:1"
       id="path8992"
       sodipodi:cx="221.42857"
       sodipodi:cy="323.79074"
       sodipodi:rx="70"
       sodipodi:ry="68.571426"
       d="M 291.42857 323.79074 A 70 68.571426 0 1 1  151.42857,323.79074 A 70 68.571426 0 1 1  291.42857 323.79074 z"
       transform="matrix(0.3495743,0,0,0.3568572,552.59423,26.815085)"
       inkscape:export-filename="C:\Documents and Settings\nb15080\Desktop\bem posto.png"
       inkscape:export-xdpi="90"
       inkscape:export-ydpi="90" />
  </g>
</svg>
